<svg width="44" height="44" viewBox="0 0 44 44" fill="none" xmlns="http://www.w3.org/2000/svg">
<path d="M42.4449 19.6841L41.9841 19.2234L41.9841 19.2234L42.4449 19.6841ZM36.5529 20.2668L37.1986 20.3544L37.2045 20.3108V20.2668H36.5529ZM36.035 24.0869L35.3893 23.9993L35.3834 24.0429V24.0869H36.035ZM40.0493 24.6696L39.5885 25.1303L39.5885 25.1303L40.0493 24.6696ZM40.0493 34.5111L39.5885 34.0503H39.5885L40.0493 34.5111ZM34.2868 35.0938L34.931 35.1919L34.9384 35.1432V35.0938H34.2868ZM33.2509 41.8922L32.6067 41.794L32.6028 41.8198L32.601 41.8457L33.2509 41.8922ZM21.0785 41.7627L20.4347 41.6627L20.4332 41.6722L20.432 41.6819L21.0785 41.7627ZM22.1145 35.0938L22.7583 35.1938L22.7661 35.1441V35.0938H22.1145ZM17.5175 35.0938L18.1616 35.1919L18.1691 35.1432V35.0938H17.5175ZM16.4815 41.8922L15.8374 41.794L15.8335 41.8198L15.8316 41.8457L16.4815 41.8922ZM4.30921 41.7627L3.66536 41.6627L3.66388 41.6722L3.66267 41.6819L4.30921 41.7627ZM5.34515 35.0938L5.989 35.1938L5.99672 35.1441V35.0938H5.34515ZM1.20138 34.5111L0.740651 34.9718H0.740651L1.20138 34.5111ZM7.09331 24.0869L6.44765 23.9993L6.44174 24.0429V24.0869H7.09331ZM7.61128 20.2668L8.25694 20.3544L8.26285 20.3108V20.2668H7.61128ZM3.597 19.6841L4.05773 19.2234L4.05773 19.2234L3.597 19.6841ZM9.35943 9.19521L8.7153 9.09705L8.70787 9.14585V9.19521H9.35943ZM10.3954 2.39683L11.0395 2.49498L11.0434 2.46923L11.0453 2.44325L10.3954 2.39683ZM22.5677 2.52632L23.2116 2.62634L23.213 2.61676L23.2143 2.60714L22.5677 2.52632ZM21.5318 9.19521L20.8879 9.09519L20.8802 9.1449V9.19521H21.5318ZM26.1288 9.19521L25.4846 9.09705L25.4772 9.14585V9.19521H26.1288ZM27.1647 2.39683L27.8088 2.49498L27.8128 2.46923L27.8146 2.44325L27.1647 2.39683ZM39.337 2.52632L39.9809 2.62634L39.9824 2.61676L39.9836 2.60714L39.337 2.52632ZM38.3011 9.19521L37.6573 9.09519L37.6495 9.1449V9.19521H38.3011ZM42.4449 9.77792L41.9841 10.2386L41.9841 10.2387L42.4449 9.77792ZM23.8626 24.0869L23.217 23.9993L23.2111 24.0429V24.0869H23.8626ZM24.3806 20.2668L25.0263 20.3544L25.0322 20.3108V20.2668H24.3806ZM19.7836 20.2668L20.4293 20.3544L20.4352 20.3108V20.2668H19.7836ZM19.2656 24.0869L18.62 23.9993L18.6141 24.0429V24.0869H19.2656ZM42.0523 18.9719C42.0523 19.1447 42.007 19.2006 41.9841 19.2234L42.9056 20.1449C43.2281 19.8224 43.3554 19.4034 43.3554 18.9719H42.0523ZM41.9841 19.2234C41.9613 19.2462 41.9055 19.2915 41.7327 19.2915V20.5947C42.1641 20.5947 42.5831 20.4674 42.9056 20.1449L41.9841 19.2234ZM41.7327 19.2915H36.9414V20.5947H41.7327V19.2915ZM36.9414 19.2915C36.7375 19.2915 36.4633 19.3316 36.2329 19.5235C35.9799 19.7344 35.9014 20.0241 35.9014 20.2668H37.2045C37.2045 20.2767 37.2032 20.3148 37.1822 20.3672C37.1596 20.4236 37.1208 20.4799 37.0672 20.5246C36.9664 20.6086 36.8864 20.5947 36.9414 20.5947V19.2915ZM35.9073 20.1793L35.3893 23.9993L36.6806 24.1744L37.1986 20.3544L35.9073 20.1793ZM35.3834 24.0869C35.3834 24.2644 35.4161 24.5181 35.5909 24.7367C35.788 24.9831 36.0638 25.0622 36.294 25.0622V23.7591C36.3175 23.7591 36.3682 23.7627 36.4313 23.7889C36.4983 23.8169 36.5607 23.8628 36.6085 23.9227C36.6971 24.0333 36.6865 24.1252 36.6865 24.0869H35.3834ZM36.294 25.0622H39.337V23.7591H36.294V25.0622ZM39.337 25.0622C39.5099 25.0622 39.5657 25.1075 39.5885 25.1303L40.51 24.2089C40.1875 23.8864 39.7685 23.7591 39.337 23.7591V25.0622ZM39.5885 25.1303C39.6113 25.1532 39.6567 25.209 39.6567 25.3818H40.9598C40.9598 24.9503 40.8325 24.5314 40.51 24.2089L39.5885 25.1303ZM39.6567 25.3818V33.7989H40.9598V25.3818H39.6567ZM39.6567 33.7989C39.6567 33.9717 39.6113 34.0275 39.5885 34.0503L40.51 34.9718C40.8325 34.6493 40.9598 34.2303 40.9598 33.7989H39.6567ZM39.5885 34.0503C39.5657 34.0732 39.5099 34.1185 39.337 34.1185V35.4216C39.7685 35.4216 40.1875 35.2943 40.51 34.9718L39.5885 34.0503ZM39.337 34.1185H34.6753V35.4216H39.337V34.1185ZM34.6753 34.1185C34.4714 34.1185 34.1971 34.1585 33.9668 34.3504C33.7137 34.5613 33.6353 34.851 33.6353 35.0938H34.9384C34.9384 35.1037 34.937 35.1417 34.9161 35.1941C34.8935 35.2505 34.8547 35.3068 34.8011 35.3515C34.7002 35.4356 34.6202 35.4216 34.6753 35.4216V34.1185ZM33.6427 34.9956L32.6067 41.794L33.895 41.9903L34.931 35.1919L33.6427 34.9956ZM32.601 41.8457C32.5876 42.0334 32.5365 42.0763 32.5305 42.0817C32.5174 42.0931 32.4452 42.1471 32.2149 42.1471V43.4502C32.6321 43.4502 33.0563 43.3531 33.3886 43.0624C33.7278 42.7655 33.871 42.3552 33.9008 41.9386L32.601 41.8457ZM32.2149 42.1471H21.985V43.4502H32.2149V42.1471ZM21.985 42.1471C21.7319 42.1471 21.7066 42.083 21.7308 42.1106C21.7537 42.1368 21.693 42.0999 21.7251 41.8435L20.432 41.6819C20.3777 42.1161 20.425 42.5972 20.7501 42.9687C21.0763 43.3416 21.5475 43.4502 21.985 43.4502V42.1471ZM21.7224 41.8627L22.7583 35.1938L21.4706 34.9938L20.4347 41.6627L21.7224 41.8627ZM22.7661 35.0938C22.7661 34.9163 22.7334 34.6625 22.5585 34.444C22.3615 34.1976 22.0856 34.1185 21.8555 34.1185V35.4216C21.8319 35.4216 21.7813 35.418 21.7182 35.3917C21.6512 35.3638 21.5888 35.3178 21.541 35.258C21.4524 35.1474 21.4629 35.0555 21.4629 35.0938H22.7661ZM21.8555 34.1185H17.906V35.4216H21.8555V34.1185ZM17.906 34.1185C17.702 34.1185 17.4278 34.1585 17.1975 34.3504C16.9444 34.5613 16.8659 34.851 16.8659 35.0938H18.1691C18.1691 35.1037 18.1677 35.1417 18.1467 35.1941C18.1242 35.2505 18.0854 35.3068 18.0317 35.3515C17.9309 35.4356 17.8509 35.4216 17.906 35.4216V34.1185ZM16.8734 34.9956L15.8374 41.794L17.1257 41.9903L18.1616 35.1919L16.8734 34.9956ZM15.8316 41.8457C15.8182 42.0334 15.7672 42.0763 15.7611 42.0817C15.7481 42.0931 15.6759 42.1471 15.4456 42.1471V43.4502C15.8628 43.4502 16.287 43.3531 16.6192 43.0624C16.9585 42.7655 17.1017 42.3552 17.1315 41.9386L15.8316 41.8457ZM15.4456 42.1471H5.21566V43.4502H15.4456V42.1471ZM5.21566 42.1471C4.96256 42.1471 4.9373 42.083 4.96143 42.1106C4.98438 42.1368 4.9237 42.0999 4.95575 41.8435L3.66267 41.6819C3.60839 42.1161 3.65562 42.5972 3.98072 42.9687C4.307 43.3416 4.77813 43.4502 5.21566 43.4502V42.1471ZM4.95306 41.8627L5.989 35.1938L4.70131 34.9938L3.66536 41.6627L4.95306 41.8627ZM5.99672 35.0938C5.99672 34.9163 5.96407 34.6625 5.7892 34.444C5.59212 34.1976 5.3163 34.1185 5.08617 34.1185V35.4216C5.06258 35.4216 5.01195 35.418 4.94887 35.3917C4.88182 35.3638 4.81948 35.3178 4.77162 35.258C4.68308 35.1473 4.69358 35.0555 4.69358 35.0938H5.99672ZM5.08617 34.1185H1.91359V35.4216H5.08617V34.1185ZM1.91359 34.1185C1.74076 34.1185 1.68492 34.0732 1.66211 34.0503L0.740651 34.9718C1.06315 35.2943 1.48212 35.4216 1.91359 35.4216V34.1185ZM1.66211 34.0503C1.63929 34.0275 1.59396 33.9717 1.59396 33.7989H0.290825C0.290825 34.2303 0.41815 34.6493 0.740651 34.9718L1.66211 34.0503ZM1.59396 33.7989V25.3818H0.290825V33.7989H1.59396ZM1.59396 25.3818C1.59396 25.209 1.63929 25.1532 1.66211 25.1303L0.740651 24.2089C0.41815 24.5314 0.290825 24.9503 0.290825 25.3818H1.59396ZM1.66211 25.1303C1.68492 25.1075 1.74076 25.0622 1.91359 25.0622V23.7591C1.48212 23.7591 1.06315 23.8864 0.740651 24.2089L1.66211 25.1303ZM1.91359 25.0622H6.70483V23.7591H1.91359V25.0622ZM6.70483 25.0622C6.90876 25.0622 7.183 25.0222 7.41331 24.8302C7.66638 24.6194 7.74488 24.3296 7.74488 24.0869H6.44174C6.44174 24.077 6.44309 24.039 6.46406 23.9865C6.48662 23.9301 6.52542 23.8738 6.57906 23.8291C6.67988 23.7451 6.75989 23.7591 6.70483 23.7591V25.0622ZM7.73897 24.1744L8.25694 20.3544L6.96562 20.1793L6.44765 23.9993L7.73897 24.1744ZM8.26285 20.2668C8.26285 20.0893 8.23019 19.8356 8.05532 19.617C7.85824 19.3707 7.58243 19.2915 7.35229 19.2915V20.5947C7.32871 20.5947 7.27807 20.5911 7.215 20.5648C7.14794 20.5369 7.0856 20.4909 7.03774 20.4311C6.9492 20.3204 6.95971 20.2286 6.95971 20.2668H8.26285ZM7.35229 19.2915H4.30921V20.5947H7.35229V19.2915ZM4.30921 19.2915C4.13638 19.2915 4.08054 19.2462 4.05773 19.2234L3.13627 20.1449C3.45877 20.4674 3.87774 20.5947 4.30921 20.5947V19.2915ZM4.05773 19.2234C4.03491 19.2006 3.98958 19.1448 3.98958 18.9719H2.68644C2.68644 19.4034 2.81377 19.8224 3.13627 20.1449L4.05773 19.2234ZM3.98958 18.9719V10.4901H2.68644V18.9719H3.98958ZM3.98958 10.4901C3.98958 10.3173 4.03491 10.2615 4.05773 10.2387L3.13627 9.3172C2.81377 9.6397 2.68644 10.0587 2.68644 10.4901H3.98958ZM4.05773 10.2387C4.08054 10.2158 4.13638 10.1705 4.30921 10.1705V8.86737C3.87774 8.86737 3.45877 8.99469 3.13627 9.3172L4.05773 10.2387ZM4.30921 10.1705H8.97096V8.86737H4.30921V10.1705ZM8.97096 10.1705C9.17488 10.1705 9.44913 10.1305 9.67944 9.93855C9.9325 9.72766 10.011 9.43795 10.011 9.19521H8.70787C8.70787 9.18534 8.70922 9.14727 8.73019 9.09485C8.75275 9.03845 8.79155 8.98216 8.84519 8.93746C8.94601 8.85344 9.02601 8.86737 8.97096 8.86737V10.1705ZM10.0036 9.29336L11.0395 2.49498L9.75124 2.29867L8.7153 9.09705L10.0036 9.29336ZM11.0453 2.44325C11.0587 2.25559 11.1097 2.21266 11.1158 2.20734C11.1288 2.19594 11.201 2.14194 11.4313 2.14194V0.838807C11.0141 0.838807 10.59 0.935886 10.2577 1.22663C9.91844 1.52346 9.77522 1.93376 9.74547 2.3504L11.0453 2.44325ZM11.4313 2.14194H21.6613V0.838807H11.4313V2.14194ZM21.6613 2.14194C21.9144 2.14194 21.9396 2.206 21.9155 2.17842C21.8925 2.1522 21.9532 2.18912 21.9212 2.4455L23.2143 2.60714C23.2685 2.17289 23.2213 1.69184 22.8962 1.3203C22.5699 0.947404 22.0988 0.838807 21.6613 0.838807V2.14194ZM21.9239 2.42631L20.8879 9.09519L22.1756 9.29522L23.2116 2.62634L21.9239 2.42631ZM20.8802 9.19521C20.8802 9.37273 20.9129 9.62645 21.0877 9.84504C21.2848 10.0914 21.5606 10.1705 21.7908 10.1705V8.86737C21.8143 8.86737 21.865 8.87097 21.9281 8.89726C21.9951 8.92519 22.0574 8.97115 22.1053 9.03097C22.1938 9.14165 22.1833 9.2335 22.1833 9.19521H20.8802ZM21.7908 10.1705H25.7403V8.86737H21.7908V10.1705ZM25.7403 10.1705C25.9442 10.1705 26.2185 10.1305 26.4488 9.93855C26.7018 9.72766 26.7803 9.43795 26.7803 9.19521H25.4772C25.4772 9.18534 25.4786 9.14727 25.4995 9.09485C25.5221 9.03845 25.5609 8.98216 25.6145 8.93746C25.7153 8.85344 25.7953 8.86737 25.7403 8.86737V10.1705ZM26.7729 9.29336L27.8088 2.49498L26.5206 2.29867L25.4846 9.09705L26.7729 9.29336ZM27.8146 2.44325C27.828 2.25559 27.8791 2.21266 27.8851 2.20734C27.8982 2.19594 27.9704 2.14194 28.2007 2.14194V0.838807C27.7835 0.838807 27.3593 0.935886 27.027 1.22663C26.6878 1.52346 26.5446 1.93376 26.5148 2.3504L27.8146 2.44325ZM28.2007 2.14194H38.4306V0.838807H28.2007V2.14194ZM38.4306 2.14194C38.6837 2.14194 38.709 2.206 38.6848 2.17842C38.6619 2.1522 38.7226 2.18912 38.6905 2.44551L39.9836 2.60714C40.0379 2.17289 39.9906 1.69184 39.6655 1.3203C39.3393 0.947404 38.8681 0.838807 38.4306 0.838807V2.14194ZM38.6932 2.42631L37.6573 9.09519L38.945 9.29522L39.9809 2.62634L38.6932 2.42631ZM37.6495 9.19521C37.6495 9.37273 37.6822 9.62645 37.8571 9.84503C38.0541 10.0914 38.33 10.1705 38.5601 10.1705V8.86737C38.5837 8.86737 38.6343 8.87098 38.6974 8.89726C38.7644 8.9252 38.8268 8.97115 38.8746 9.03098C38.9632 9.14165 38.9527 9.2335 38.9527 9.19521H37.6495ZM38.5601 10.1705H41.7327V8.86737H38.5601V10.1705ZM41.7327 10.1705C41.9055 10.1705 41.9613 10.2158 41.9841 10.2386L42.9056 9.3172C42.5831 8.99469 42.1641 8.86737 41.7327 8.86737V10.1705ZM41.9841 10.2387C42.007 10.2615 42.0523 10.3173 42.0523 10.4901H43.3554C43.3554 10.0587 43.2281 9.6397 42.9056 9.3172L41.9841 10.2387ZM42.0523 10.4901V18.9719H43.3554V10.4901H42.0523ZM23.4742 25.0622C23.6781 25.0622 23.9523 25.0222 24.1826 24.8302C24.4357 24.6194 24.5142 24.3296 24.5142 24.0869H23.2111C23.2111 24.077 23.2124 24.039 23.2334 23.9865C23.256 23.9301 23.2948 23.8738 23.3484 23.8291C23.4492 23.7451 23.5292 23.7591 23.4742 23.7591V25.0622ZM24.5083 24.1744L25.0263 20.3544L23.735 20.1793L23.217 23.9993L24.5083 24.1744ZM25.0322 20.2668C25.0322 20.0893 24.9995 19.8356 24.8247 19.617C24.6276 19.3707 24.3518 19.2915 24.1216 19.2915V20.5947C24.098 20.5947 24.0474 20.5911 23.9843 20.5648C23.9173 20.5369 23.8549 20.4909 23.8071 20.4311C23.7185 20.3204 23.729 20.2286 23.729 20.2668H25.0322ZM24.1216 19.2915H20.1721V20.5947H24.1216V19.2915ZM20.1721 19.2915C19.9682 19.2915 19.6939 19.3316 19.4636 19.5235C19.2105 19.7344 19.132 20.0241 19.132 20.2668H20.4352C20.4352 20.2767 20.4338 20.3148 20.4129 20.3672C20.3903 20.4236 20.3515 20.4799 20.2979 20.5246C20.197 20.6086 20.117 20.5947 20.1721 20.5947V19.2915ZM19.138 20.1793L18.62 23.9993L19.9113 24.1744L20.4293 20.3544L19.138 20.1793ZM18.6141 24.0869C18.6141 24.2644 18.6467 24.5181 18.8216 24.7367C19.0187 24.9831 19.2945 25.0622 19.5246 25.0622V23.7591C19.5482 23.7591 19.5989 23.7627 19.6619 23.7889C19.729 23.8169 19.7913 23.8628 19.8392 23.9227C19.9277 24.0333 19.9172 24.1252 19.9172 24.0869H18.6141ZM19.5246 25.0622H23.4742V23.7591H19.5246V25.0622Z" fill="white"/>
</svg>
