<svg width="45" height="45" viewBox="0 0 45 45" fill="none" xmlns="http://www.w3.org/2000/svg">
<path fill-rule="evenodd" clip-rule="evenodd" d="M5.625 2.8125C4.87908 2.8125 4.16371 3.10882 3.63626 3.63626C3.10882 4.16371 2.8125 4.87908 2.8125 5.625L2.8125 39.375C2.8125 40.1209 3.10882 40.8363 3.63626 41.3637C4.16371 41.8912 4.87908 42.1875 5.625 42.1875H39.375C40.1209 42.1875 40.8363 41.8912 41.3637 41.3637C41.8912 40.8363 42.1875 40.1209 42.1875 39.375V5.625C42.1875 4.87908 41.8912 4.16371 41.3637 3.63626C40.8363 3.10882 40.1209 2.8125 39.375 2.8125L5.625 2.8125ZM5.625 45C4.13316 45 2.70242 44.4074 1.64753 43.3525C0.592634 42.2976 1.54047e-06 40.8668 1.47526e-06 39.375L0 5.625C-6.52105e-08 4.13316 0.592632 2.70242 1.64752 1.64753C2.70242 0.592635 4.13316 1.54047e-06 5.625 1.47526e-06L39.375 0C40.8668 -6.52105e-08 42.2976 0.592633 43.3525 1.64753C44.4074 2.70242 45 4.13316 45 5.625V39.375C45 40.8668 44.4074 42.2976 43.3525 43.3525C42.2976 44.4074 40.8668 45 39.375 45H5.625ZM12.6563 21.0938C12.2833 21.0938 11.9256 21.2419 11.6619 21.5056C11.3982 21.7694 11.25 22.127 11.25 22.5C11.25 22.873 11.3982 23.2306 11.6619 23.4944C11.9256 23.7581 12.2833 23.9063 12.6563 23.9063L28.9491 23.9062L22.9106 29.9419C22.6466 30.2059 22.4982 30.5641 22.4982 30.9375C22.4982 31.3109 22.6466 31.6691 22.9106 31.9331C23.1747 32.1972 23.5328 32.3455 23.9063 32.3455C24.2797 32.3455 24.6378 32.1972 24.9019 31.9331L33.3394 23.4956C33.4703 23.365 33.5742 23.2098 33.6451 23.039C33.716 22.8681 33.7525 22.685 33.7525 22.5C33.7525 22.315 33.716 22.1319 33.6451 21.961C33.5742 21.7902 33.4703 21.635 33.3394 21.5044L24.9019 13.0669C24.6378 12.8028 24.2797 12.6545 23.9062 12.6545C23.5328 12.6545 23.1747 12.8028 22.9106 13.0669C22.6466 13.3309 22.4982 13.6891 22.4982 14.0625C22.4982 14.4359 22.6466 14.7941 22.9106 15.0581L28.9491 21.0938L12.6563 21.0938Z" fill="white"/>
</svg>
