<svg width="26" height="26" viewBox="0 0 26 26" fill="none" xmlns="http://www.w3.org/2000/svg">
<path d="M12.6127 0.898315C5.68123 0.898315 0.0618134 6.51774 0.0618134 13.4492C0.0618134 20.3806 5.68113 26 12.6127 26C19.5442 26 25.1636 20.3806 25.1636 13.4492C25.1635 6.51763 19.5441 0.898315 12.6127 0.898315ZM18.1037 15.6024H14.766V18.94C14.766 20.1293 13.802 21.0935 12.6128 21.0935C11.4234 21.0935 10.4593 20.1293 10.4593 18.94V15.6024H7.12175C5.93242 15.6024 4.96825 14.6384 4.96825 13.4489C4.96825 12.2596 5.93231 11.2954 7.12175 11.2954H10.4593V7.95793C10.4593 6.7686 11.4234 5.80444 12.6128 5.80444C13.8021 5.80444 14.766 6.7686 14.766 7.95793V11.2954H18.1037C19.293 11.2954 20.2572 12.2596 20.2572 13.4489C20.2571 14.6385 19.2931 15.6024 18.1037 15.6024Z" fill="white"/>
</svg>
