<svg width="47" height="31" viewBox="0 0 47 31" fill="none" xmlns="http://www.w3.org/2000/svg">
<path d="M45.6126 5.76057C45.9072 5.76057 46.1998 5.76938 46.4904 5.78553C46.0548 5.1642 45.5506 4.61616 44.9606 4.17561C43.2019 2.86297 40.9241 2.43229 38.9105 1.64103C37.9303 1.25603 37.0526 0.873568 36.2286 0.43811C33.4477 3.48791 29.8212 5.08327 25.5981 5.0837C21.3764 5.0837 17.7502 3.48833 14.9695 0.43811C14.1455 0.873674 13.2676 1.25603 12.2876 1.64103C10.274 2.4324 7.99634 2.86297 6.23752 4.17561C3.1959 6.44583 2.40985 11.5529 1.79224 15.0366C1.28254 17.9123 0.940124 20.8469 0.840181 23.7679C0.762755 26.0305 1.87986 26.3477 3.77272 27.0308C6.14278 27.8855 8.58994 28.5201 11.0536 29.0403C15.8114 30.0451 20.7157 30.8171 25.5989 30.8516C27.965 30.8347 30.3359 30.6439 32.6928 30.3383C30.9477 27.8098 29.9242 24.7469 29.9242 21.4491C29.9243 12.7983 36.962 5.76057 45.6126 5.76057Z" fill="white"/>
</svg>
