<svg width="118" height="129" viewBox="0 0 118 129" fill="none" xmlns="http://www.w3.org/2000/svg">
<path d="M85.0473 84.7581C88.8301 82.7261 93.16 81.5693 97.7712 81.5693H97.7868C98.2558 81.5693 98.4746 81.0066 98.1307 80.694C93.3352 76.3904 87.8573 72.9144 81.9211 70.4086C81.8585 70.3773 81.796 70.3617 81.7335 70.3304C91.4405 63.2807 97.7555 51.823 97.7555 38.8959C97.7555 17.4811 80.4361 0.130371 59.0681 0.130371C37.7002 0.130371 20.3964 17.4811 20.3964 38.8959C20.3964 51.823 26.7114 63.2807 36.434 70.3304C36.3715 70.3617 36.309 70.3773 36.2465 70.4086C29.2593 73.3629 22.9911 77.599 17.5984 83.0074C12.2367 88.3593 7.96813 94.7038 5.0308 101.687C2.14078 108.525 0.581068 115.851 0.435205 123.274C0.431033 123.44 0.460295 123.606 0.521268 123.762C0.582242 123.917 0.673691 124.059 0.790229 124.178C0.906767 124.298 1.04604 124.392 1.19983 124.457C1.35362 124.522 1.51883 124.555 1.68571 124.555H11.0488C11.721 124.555 12.2837 124.008 12.2993 123.336C12.612 111.269 17.442 99.9674 25.9923 91.4014C34.824 82.5385 46.5787 77.6615 59.0838 77.6615C67.9467 77.6615 76.4501 80.1156 83.7812 84.7112C83.9695 84.8296 84.1857 84.8962 84.408 84.9044C84.6302 84.9127 84.8508 84.8622 85.0473 84.7581ZM59.0838 65.7817C51.9246 65.7817 45.1876 62.9837 40.1074 57.9036C37.6079 55.4105 35.6263 52.4476 34.2769 49.1854C32.9275 45.9232 32.2369 42.4262 32.2449 38.8959C32.2449 31.7212 35.0429 24.9685 40.1074 19.8883C45.1719 14.8081 51.909 12.0101 59.0838 12.0101C66.2585 12.0101 72.98 14.8081 78.0601 19.8883C80.5597 22.3814 82.5412 25.3443 83.8906 28.6065C85.24 31.8687 85.9306 35.3657 85.9227 38.8959C85.9227 46.0707 83.1247 52.8234 78.0601 57.9036C72.98 62.9837 66.2429 65.7817 59.0838 65.7817ZM116.576 102.984H103.445V89.8539C103.445 89.1661 102.883 88.6034 102.195 88.6034H93.4413C92.7535 88.6034 92.1908 89.1661 92.1908 89.8539V102.984H79.0605C78.3728 102.984 77.81 103.547 77.81 104.235V112.988C77.81 113.676 78.3728 114.239 79.0605 114.239H92.1908V127.369C92.1908 128.057 92.7535 128.619 93.4413 128.619H102.195C102.883 128.619 103.445 128.057 103.445 127.369V114.239H116.576C117.263 114.239 117.826 113.676 117.826 112.988V104.235C117.826 103.547 117.263 102.984 116.576 102.984Z" fill="white"/>
</svg>
