<svg width="49" height="47" viewBox="0 0 49 47" fill="none" xmlns="http://www.w3.org/2000/svg">
<path d="M37.1126 35.5198C33.9656 35.5168 31.412 38.0842 31.4088 41.2543C31.4057 44.4245 33.9545 46.9969 37.1015 47C40.2485 47.003 42.8022 44.4356 42.8053 41.2655C42.8053 41.2636 42.8053 41.2618 42.8053 41.26C42.8023 38.0932 40.2562 35.526 37.1126 35.5198Z" fill="white"/>
<path d="M47.2192 8.03328C47.0829 8.00669 46.9444 7.99317 46.8055 7.99296H12.1108L11.5613 4.28984C11.2189 1.83053 9.13065 0.000756776 6.66536 0H2.19796C0.984038 0 0 0.991268 0 2.21411C0 3.43695 0.984038 4.42822 2.19796 4.42822H6.67083C6.9503 4.42617 7.18683 4.63579 7.22032 4.91537L10.6052 28.2853C11.0692 31.2548 13.6049 33.4456 16.5891 33.4552H39.4534C42.3265 33.459 44.8051 31.4249 45.3824 28.5897L48.9596 10.6277C49.1902 9.42716 48.411 8.26561 47.2192 8.03328Z" fill="white"/>
<path d="M23.1534 41.0141C23.0196 37.937 20.4986 35.5146 17.4408 35.5253C14.2964 35.6533 11.8503 38.325 11.9774 41.4925C12.0993 44.5318 14.5537 46.9476 17.5727 47H17.7101C20.8541 46.8612 23.2911 44.1812 23.1534 41.0141Z" fill="white"/>
</svg>
