<svg width="164" height="164" viewBox="0 0 164 164" fill="none" xmlns="http://www.w3.org/2000/svg">
<circle cx="81.9081" cy="81.8635" r="81.2983" fill="white"/>
<path d="M44.1643 74.385C85.6866 72.3876 107.307 78.8874 120.655 98.2127C104.973 106.824 94.9666 109.453 73.0655 101.901C58.1329 96.7511 53.0111 87.9413 44.1643 74.385Z" fill="#C7D660"/>
<path d="M84.3601 32.4905C111.175 56.3583 125.761 75.2977 121.584 97.3942C106.725 92.1859 96.1194 86.6565 87.725 66.4079C82.0016 52.602 81.1196 47.6313 84.3601 32.4905Z" fill="#E86932"/>
<path d="M69.5786 79.4348C97.1504 79.5654 111.661 84.6315 120.932 97.9097C110.679 103.069 104.079 104.461 89.36 98.6872C79.3246 94.7506 75.7386 88.7311 69.5786 79.4348Z" fill="#2AAA5F"/>
<path d="M45.0813 97.235C81.9019 84.5469 103.491 84.5774 121.726 98.0754C110.338 109.784 102.153 114.732 79.9737 113.849C64.8515 113.246 57.4072 106.839 45.0813 97.235Z" fill="#FBD84C" fill-opacity="0.85"/>
<path d="M71.605 119.328C91.5118 101.31 105.484 95.2001 121.434 98.0711C117.675 108.284 113.905 113.558 99.2879 119.328C89.3221 123.261 82.5345 121.555 71.605 119.328Z" fill="#C07CA2" fill-opacity="0.75"/>
</svg>
