<svg width="126" height="88" viewBox="0 0 126 88" fill="none" xmlns="http://www.w3.org/2000/svg">
<path d="M106.435 13.2547C106.435 6.4907 100.8 0.956543 93.913 0.956543H75.1304V13.2547H93.913V29.5497L72.1252 56.2982H50.087V25.5528H25.0435C11.207 25.5528 0 36.5596 0 50.1491V68.5963H12.5217C12.5217 78.8037 20.9113 87.0435 31.3043 87.0435C41.6974 87.0435 50.087 78.8037 50.087 68.5963H78.1356L106.435 33.8541V13.2547ZM12.5217 56.2982V50.1491C12.5217 43.3851 18.1565 37.8509 25.0435 37.8509H37.5652V56.2982H12.5217ZM31.3043 74.7454C27.8609 74.7454 25.0435 71.9783 25.0435 68.5963H37.5652C37.5652 71.9783 34.7478 74.7454 31.3043 74.7454Z" fill="white"/>
<path d="M18.7826 7.10562H50.087V19.4038H18.7826V7.10562ZM106.435 50.1491C96.0417 50.1491 87.6522 58.3888 87.6522 68.5963C87.6522 78.8037 96.0417 87.0435 106.435 87.0435C116.828 87.0435 125.217 78.8037 125.217 68.5963C125.217 58.3888 116.828 50.1491 106.435 50.1491ZM106.435 74.7454C102.991 74.7454 100.174 71.9783 100.174 68.5963C100.174 65.2143 102.991 62.4472 106.435 62.4472C109.878 62.4472 112.696 65.2143 112.696 68.5963C112.696 71.9783 109.878 74.7454 106.435 74.7454Z" fill="white"/>
</svg>
