<svg width="147" height="147" viewBox="0 0 147 147" fill="none" xmlns="http://www.w3.org/2000/svg">
<path d="M32.2104 49.3101L27.3478 49.4906C20.6275 49.4984 15.1818 54.9337 15.1739 61.6412V71.3617C15.1818 78.0691 20.6275 83.5044 27.3478 83.5123H29.1794C29.5154 87.0266 30.1694 90.5032 31.1333 93.8996L35.8172 92.566C34.7225 88.7249 34.0559 84.775 33.8295 80.7878C33.8176 80.6873 32.2104 49.3101 32.2104 49.3101ZM20.0434 71.3617V61.6412C20.048 57.6166 23.3155 54.3554 27.3478 54.3508H27.5946L28.8379 78.6521H27.3478C23.3155 78.6475 20.048 75.3863 20.0434 71.3617Z" fill="white"/>
<path d="M103.663 116.684L99.9634 113.527C98.1428 115.659 96.1322 117.621 93.9571 119.39C90.4969 122.291 86.6436 124.69 82.5108 126.514C76.8326 128.978 70.3847 128.978 64.7065 126.514C60.5737 124.69 56.7204 122.291 53.2603 119.39L49.2608 121.253V129.296C49.2581 134.124 48.4774 138.92 46.9496 143.501C46.5266 144.775 47.2187 146.15 48.4951 146.572C48.7422 146.654 49.0006 146.696 49.2608 146.696H97.9565C99.3011 146.696 100.391 145.608 100.391 144.265C100.391 144.006 100.35 143.748 100.268 143.501C98.7399 138.92 97.9592 134.124 97.9565 129.296V122.338C100.003 120.604 101.911 118.714 103.663 116.684ZM52.5174 141.835C53.5868 137.741 54.1289 133.527 54.1304 129.296V126.12C56.8424 128 59.7264 129.621 62.7434 130.961C69.6631 134.02 77.5561 134.02 84.4757 130.961C87.4918 129.621 90.3752 128.001 93.0869 126.121V129.296C93.0884 133.527 93.6305 137.741 94.7 141.835H52.5174Z" fill="white"/>
<path d="M104.622 75.0069L105.9 70.3173C99.1042 68.4762 91.9392 68.4762 85.1434 70.3173L86.4217 75.0069C92.3805 73.3932 98.6629 73.3932 104.622 75.0069Z" fill="white"/>
<path d="M62.3384 95.836L60.5311 100.35L61.1733 100.606C65.1335 102.163 69.3524 102.959 73.6087 102.953C76.2568 102.955 78.8961 102.65 81.4742 102.047L80.3518 97.3148C74.5695 98.6568 68.5166 98.2309 62.9802 96.0924L62.3384 95.836Z" fill="white"/>
<path d="M109.353 57.4313C101.488 50.1409 89.8676 50.1267 81.7263 57.4009L84.9694 61.0224C91.3013 55.3766 99.9634 55.3599 106.038 60.9921L109.353 57.4313Z" fill="white"/>
<path d="M37.8645 57.4313L41.1789 60.9908C47.2515 55.3617 55.9136 55.3736 62.248 61.0212L65.4911 57.3997C57.3449 50.1266 45.7277 50.1409 37.8645 57.4313Z" fill="white"/>
<path d="M71.1739 61.6412H76.0434V88.3726H71.1739V61.6412Z" fill="white"/>
<path d="M51.6956 76.2219C54.385 76.2219 56.5652 74.0459 56.5652 71.3616C56.5652 68.6774 54.385 66.5014 51.6956 66.5014C49.0062 66.5014 46.8261 68.6774 46.8261 71.3616C46.8261 74.0459 49.0062 76.2219 51.6956 76.2219Z" fill="white"/>
<path d="M144.217 90.8027H120.228L96.2217 83.6144C95.1964 83.3076 94.0907 83.7055 93.4969 84.5943L91.3284 87.841C87.1817 94.049 87.1817 102.137 91.3284 108.345L93.4969 111.592C94.0907 112.481 95.1964 112.879 96.2217 112.572L105.157 109.897L105.161 109.895L120.228 105.383H144.217C145.562 105.383 146.652 104.295 146.652 102.953V93.2328C146.652 91.8907 145.562 90.8027 144.217 90.8027ZM117.435 101.145L106.089 104.542L105.937 104.04C105.608 102.935 105.684 101.749 106.15 100.694V100.692C107.28 98.1799 107.28 95.3057 106.15 92.7938C105.984 92.409 105.888 91.9974 105.867 91.5788L117.435 95.0411V101.145ZM95.379 105.649C92.323 101.074 92.323 95.1125 95.379 90.5369L96.5489 88.7878L101.057 90.138C100.827 91.7179 101.053 93.3306 101.708 94.7871C102.26 96.0335 102.26 97.4542 101.708 98.7006C100.757 100.82 100.602 103.211 101.273 105.436L101.425 105.938L96.5489 107.398L95.379 105.649ZM141.783 100.523H122.304V95.6629H141.783V100.523Z" fill="white"/>
<path d="M2.99997 116.319H27.0483L31.6275 117.461C31.8202 117.51 32.0183 117.535 32.2174 117.534H51.2087C54.1654 117.53 56.5612 115.139 56.5652 112.188V103.439C56.5612 100.488 54.1654 98.097 51.2087 98.0931H32.2174C31.9946 98.0937 31.773 98.1244 31.5588 98.1842L27.013 99.46H2.99997C1.65536 99.46 0.565186 100.548 0.565186 101.89V113.889C0.565186 115.231 1.65536 116.319 2.99997 116.319ZM51.6956 103.439V112.188C51.6956 112.456 51.4777 112.674 51.2087 112.674H44.3913V102.953H51.2087C51.4777 102.953 51.6956 103.171 51.6956 103.439ZM5.43475 104.32H27.3478C27.5706 104.32 27.7921 104.289 28.0064 104.229L32.5521 102.953H39.5217V112.674H32.5168L27.9376 111.532C27.745 111.483 27.5468 111.458 27.3478 111.459H5.43475V104.32Z" fill="white"/>
<path d="M2.99997 47.0604L12.9126 47.0534L43.5638 44.8663C45.9769 44.6819 48.2717 43.7497 50.1282 42.2001H56.5652C58.4135 42.1938 60.0984 41.1415 60.9122 39.4851L74.008 37.3068C75.1825 37.1118 76.0435 36.0981 76.0435 34.9098V30.0495C76.0435 28.8612 75.1825 27.8475 74.008 27.6525L60.9122 25.4742C60.7661 25.1811 60.5905 24.9034 60.3881 24.6455C64.6837 23.3971 69.1348 22.7619 73.6087 22.7591C80.2054 22.7221 86.7349 24.0851 92.7637 26.7579C96.8551 28.5325 100.628 30.9639 103.932 33.9556C109.593 39.1364 113.248 45.4987 114.512 52.3976C114.585 52.7621 113.271 82.4989 113.193 83.2702L119.87 83.5123C126.59 83.5044 132.036 78.0691 132.043 71.3616V61.6411C132.036 54.9337 126.59 49.4984 119.87 49.4905H119.755L119.87 47.0604C120.127 21.6638 99.7074 0.867371 74.2618 0.610993C59.3387 0.460629 45.2669 7.5332 36.5029 19.5897L12.7391 17.8989H2.99997C1.65536 17.8989 0.565186 18.987 0.565186 20.329V44.6303C0.565186 45.9726 1.65536 47.0604 2.99997 47.0604ZM93.1743 21.6656C91.0025 20.7813 88.771 20.0505 86.4966 19.4785L91.3522 9.7835C94.3573 11.2106 97.1786 12.9946 99.7546 15.0973L93.1743 21.6656ZM81.5482 18.4855C79.7236 18.2148 77.8863 18.0395 76.0435 17.9597V5.8792C79.7127 6.09123 83.3369 6.79232 86.8198 7.96364L81.5482 18.4855ZM71.1739 17.9597C69.3308 18.0395 67.4928 18.2148 65.6679 18.4846L60.3972 7.96333C63.8802 6.79201 67.5047 6.09092 71.1739 5.8789V17.9597ZM60.7192 19.4748C58.4448 20.0462 56.2143 20.7789 54.0443 21.6671L47.4238 15.059C50.0153 12.97 52.8518 11.2027 55.8704 9.79626L60.7192 19.4748ZM51.6956 37.3399V27.6194H56.5652V37.3399H51.6956ZM71.1739 32.8524L61.4348 34.4708V30.4885L71.1739 32.1069V32.8524ZM109.031 32.1537L111.265 29.9238C112.52 32.6771 113.469 35.5592 114.095 38.5185C112.625 36.2327 110.928 34.1005 109.031 32.1537ZM127.174 61.6411V71.3616C127.169 75.3862 123.902 78.6475 119.87 78.652H118.375L119.525 54.3508H119.87C123.902 54.3553 127.169 57.6169 127.174 61.6411ZM108.854 25.4572L105.433 28.8721C103.09 26.9478 100.559 25.2625 97.8795 23.8424L103.361 18.3716C105.443 20.5289 107.284 22.9047 108.854 25.4572ZM43.855 18.37L46.0701 20.5808C45.2562 20.326 44.4162 20.162 43.5662 20.0918L42.3704 20.0067C42.847 19.4551 43.3401 18.9083 43.855 18.37ZM5.43475 22.7567L12.5656 22.7522L43.2214 24.9378C44.5279 25.0322 45.7797 25.5012 46.8261 26.288V38.6713C45.7791 39.4587 44.5264 39.9274 43.2189 40.0215L15.1739 42.0261V30.0495H10.3043V42.2001H5.43475V22.7567Z" fill="white"/>
</svg>
