<svg width="116" height="88" viewBox="0 0 116 88" fill="none" xmlns="http://www.w3.org/2000/svg">
<path d="M111.804 72.6957H4.1956C3.22413 72.6957 2.38344 72.3407 1.67352 71.6308C0.963602 70.9209 0.608643 70.0802 0.608643 69.1087C0.608643 55.0598 4.96156 43.0846 13.6674 33.1831C22.3732 23.2816 33.5638 17.322 47.2391 15.3044C48.2105 15.3044 49.0512 14.9494 49.7612 14.2395C50.4711 13.5296 50.826 12.6889 50.826 11.7174C50.826 10.7459 50.4711 9.90525 49.7612 9.19533C49.0512 8.48542 48.2105 8.13046 47.2391 8.13046C46.2676 8.13046 45.4269 7.7755 44.717 7.06558C44.0071 6.35566 43.6521 5.51497 43.6521 4.5435C43.6521 3.57203 44.0071 2.73134 44.717 2.02142C45.4269 1.3115 46.2676 0.956543 47.2391 0.956543H68.7608C69.7323 0.956543 70.573 1.3115 71.2829 2.02142C71.9928 2.73134 72.3478 3.57203 72.3478 4.5435C72.3478 5.51497 71.9928 6.35566 71.2829 7.06558C70.573 7.7755 69.7323 8.13046 68.7608 8.13046C67.7894 8.13046 66.9487 8.48542 66.2387 9.19533C65.5288 9.90525 65.1739 10.7459 65.1739 11.7174C65.1739 12.6889 65.5288 13.5296 66.2387 14.2395C66.9487 14.9494 67.7894 15.3044 68.7608 15.3044C82.4361 17.322 93.6266 23.2816 102.332 33.1831C111.038 43.0846 115.391 55.0598 115.391 69.1087C115.391 70.0802 115.036 70.9209 114.326 71.6308C113.616 72.3407 112.776 72.6957 111.804 72.6957ZM4.1956 79.8696H111.804C112.776 79.8696 113.616 80.2245 114.326 80.9345C115.036 81.6444 115.391 82.4851 115.391 83.4566C115.391 84.428 115.036 85.2687 114.326 85.9786C113.616 86.6885 112.776 87.0435 111.804 87.0435H4.1956C3.22413 87.0435 2.38344 86.6885 1.67352 85.9786C0.963602 85.2687 0.608643 84.428 0.608643 83.4566C0.608643 82.4851 0.963602 81.6444 1.67352 80.9345C2.38344 80.2245 3.22413 79.8696 4.1956 79.8696Z" fill="white"/>
</svg>
