<svg width="196" height="112" viewBox="0 0 196 112" fill="none" xmlns="http://www.w3.org/2000/svg">
<path d="M94.6476 62.3275C93.9726 62.3275 93.382 62.219 92.8757 62.002C92.3695 61.777 91.9757 61.4596 91.6945 61.0498C91.4213 60.64 91.2847 60.1659 91.2847 59.6275V59.4587C91.2847 59.4025 91.3007 59.3583 91.3329 59.3261C91.365 59.294 91.4092 59.2779 91.4655 59.2779H93.3338C93.39 59.2779 93.4342 59.294 93.4664 59.3261C93.4985 59.3583 93.5146 59.4025 93.5146 59.4587V59.5311C93.5146 59.7561 93.6311 59.957 93.8641 60.1337C94.1052 60.3025 94.4226 60.3869 94.8164 60.3869C95.1137 60.3869 95.3266 60.3266 95.4552 60.2061C95.5838 60.0775 95.6481 59.9369 95.6481 59.7842C95.6481 59.6074 95.5677 59.4748 95.407 59.3864C95.2463 59.298 94.953 59.1895 94.5271 59.061L94.1775 58.9645C93.382 58.7235 92.715 58.402 92.1766 58.0003C91.6382 57.5985 91.369 57.0159 91.369 56.2525C91.369 55.7462 91.5056 55.3002 91.7789 54.9145C92.0521 54.5208 92.4257 54.2194 92.8998 54.0105C93.382 53.8016 93.9204 53.6971 94.515 53.6971C95.1418 53.6971 95.7083 53.8136 96.2146 54.0467C96.7289 54.2797 97.1307 54.6092 97.4199 55.0351C97.7173 55.461 97.8659 55.9471 97.8659 56.4936V56.602C97.8659 56.6583 97.8499 56.7025 97.8177 56.7346C97.7856 56.7668 97.7414 56.7828 97.6851 56.7828H95.8168C95.7606 56.7828 95.7164 56.7668 95.6842 56.7346C95.6521 56.7025 95.636 56.6583 95.636 56.602V56.59C95.636 56.3489 95.5275 56.1319 95.3106 55.9391C95.0936 55.7382 94.8003 55.6377 94.4307 55.6377C94.1735 55.6377 93.9686 55.69 93.8159 55.7944C93.6713 55.8989 93.599 56.0435 93.599 56.2284C93.599 56.373 93.6512 56.4976 93.7557 56.602C93.8682 56.6985 94.0369 56.7949 94.2619 56.8913C94.4869 56.9797 94.8324 57.0962 95.2985 57.2409C95.3628 57.265 95.644 57.3534 96.1423 57.5061C96.6485 57.6507 97.0704 57.9199 97.4079 58.3136C97.7454 58.6994 97.9141 59.1695 97.9141 59.7239C97.9141 60.2623 97.7775 60.7284 97.5043 61.1221C97.2311 61.5079 96.8494 61.8052 96.3592 62.0141C95.869 62.223 95.2985 62.3275 94.6476 62.3275Z" fill="white"/>
<path d="M102.971 53.9743C102.971 53.9181 102.987 53.8739 103.02 53.8418C103.052 53.8096 103.096 53.7935 103.152 53.7935H105.057C105.113 53.7935 105.157 53.8096 105.189 53.8418C105.221 53.8739 105.237 53.9181 105.237 53.9743V62.0503C105.237 62.1065 105.221 62.1507 105.189 62.1829C105.157 62.215 105.113 62.2311 105.057 62.2311H103.152C103.096 62.2311 103.052 62.215 103.02 62.1829C102.987 62.1507 102.971 62.1065 102.971 62.0503V58.9886C102.971 58.9485 102.951 58.9284 102.911 58.9284H101.031C100.991 58.9284 100.97 58.9485 100.97 58.9886V62.0503C100.97 62.1065 100.954 62.1507 100.922 62.1829C100.89 62.215 100.846 62.2311 100.79 62.2311H98.8852C98.829 62.2311 98.7848 62.215 98.7526 62.1829C98.7205 62.1507 98.7044 62.1065 98.7044 62.0503V53.9743C98.7044 53.9181 98.7205 53.8739 98.7526 53.8418C98.7848 53.8096 98.829 53.7935 98.8852 53.7935H100.79C100.846 53.7935 100.89 53.8096 100.922 53.8418C100.954 53.8739 100.97 53.9181 100.97 53.9743V56.9275C100.97 56.9677 100.991 56.9877 101.031 56.9877H102.911C102.951 56.9877 102.971 56.9677 102.971 56.9275V53.9743Z" fill="white"/>
<path d="M109.34 62.3757C108.673 62.3757 108.082 62.2431 107.568 61.9779C107.062 61.7047 106.668 61.327 106.387 60.8449C106.105 60.3547 105.965 59.7882 105.965 59.1453V56.8793C105.965 56.2525 106.105 55.698 106.387 55.2159C106.668 54.7337 107.062 54.3601 107.568 54.0949C108.082 53.8297 108.673 53.6971 109.34 53.6971C110.015 53.6971 110.605 53.8297 111.112 54.0949C111.626 54.3601 112.024 54.7337 112.305 55.2159C112.586 55.698 112.727 56.2525 112.727 56.8793V59.1453C112.727 59.7882 112.586 60.3547 112.305 60.8449C112.024 61.327 111.626 61.7047 111.112 61.9779C110.605 62.2431 110.015 62.3757 109.34 62.3757ZM109.34 60.4351C109.677 60.4351 109.946 60.3266 110.147 60.1096C110.356 59.8846 110.461 59.5873 110.461 59.2177V56.8552C110.461 56.4855 110.356 56.1922 110.147 55.9752C109.946 55.7502 109.677 55.6377 109.34 55.6377C109.01 55.6377 108.741 55.7502 108.532 55.9752C108.331 56.1922 108.231 56.4855 108.231 56.8552V59.2177C108.231 59.5873 108.331 59.8846 108.532 60.1096C108.741 60.3266 109.01 60.4351 109.34 60.4351Z" fill="white"/>
<path d="M117.236 53.7935C117.806 53.7935 118.309 53.9101 118.743 54.1431C119.177 54.3681 119.51 54.6935 119.743 55.1194C119.984 55.5373 120.105 56.0194 120.105 56.5659C120.105 57.1043 119.98 57.5784 119.731 57.9882C119.482 58.398 119.132 58.7154 118.682 58.9404C118.232 59.1654 117.714 59.2779 117.127 59.2779H115.85C115.81 59.2779 115.789 59.298 115.789 59.3382V62.0503C115.789 62.1065 115.773 62.1507 115.741 62.1829C115.709 62.215 115.665 62.2311 115.609 62.2311H113.704C113.648 62.2311 113.604 62.215 113.572 62.1829C113.539 62.1507 113.523 62.1065 113.523 62.0503V53.9743C113.523 53.9181 113.539 53.8739 113.572 53.8418C113.604 53.8096 113.648 53.7935 113.704 53.7935H117.236ZM116.862 57.4699C117.16 57.4699 117.397 57.3936 117.573 57.2409C117.758 57.0802 117.851 56.8712 117.851 56.6141C117.851 56.3489 117.758 56.136 117.573 55.9752C117.397 55.8145 117.16 55.7342 116.862 55.7342H115.85C115.81 55.7342 115.789 55.7543 115.789 55.7944V57.4096C115.789 57.4498 115.81 57.4699 115.85 57.4699H116.862Z" fill="white"/>
<path d="M124.463 53.7935C125.034 53.7935 125.536 53.9101 125.97 54.1431C126.404 54.3681 126.737 54.6935 126.971 55.1194C127.212 55.5373 127.332 56.0194 127.332 56.5659C127.332 57.1043 127.208 57.5784 126.958 57.9882C126.709 58.398 126.36 58.7154 125.91 58.9404C125.46 59.1654 124.941 59.2779 124.355 59.2779H123.077C123.037 59.2779 123.017 59.298 123.017 59.3382V62.0503C123.017 62.1065 123.001 62.1507 122.969 62.1829C122.937 62.215 122.892 62.2311 122.836 62.2311H120.932C120.875 62.2311 120.831 62.215 120.799 62.1829C120.767 62.1507 120.751 62.1065 120.751 62.0503V53.9743C120.751 53.9181 120.767 53.8739 120.799 53.8418C120.831 53.8096 120.875 53.7935 120.932 53.7935H124.463ZM124.09 57.4699C124.387 57.4699 124.624 57.3936 124.801 57.2409C124.986 57.0802 125.078 56.8712 125.078 56.6141C125.078 56.3489 124.986 56.136 124.801 55.9752C124.624 55.8145 124.387 55.7342 124.09 55.7342H123.077C123.037 55.7342 123.017 55.7543 123.017 55.7944V57.4096C123.017 57.4498 123.037 57.4699 123.077 57.4699H124.09Z" fill="white"/>
<path d="M128.195 62.2311C128.139 62.2311 128.095 62.215 128.063 62.1829C128.031 62.1507 128.014 62.1065 128.014 62.0503V53.9743C128.014 53.9181 128.031 53.8739 128.063 53.8418C128.095 53.8096 128.139 53.7935 128.195 53.7935H130.1C130.156 53.7935 130.2 53.8096 130.232 53.8418C130.264 53.8739 130.281 53.9181 130.281 53.9743V62.0503C130.281 62.1065 130.264 62.1507 130.232 62.1829C130.2 62.215 130.156 62.2311 130.1 62.2311H128.195Z" fill="white"/>
<path d="M135.941 53.9743C135.941 53.9181 135.957 53.8739 135.989 53.8418C136.022 53.8096 136.066 53.7935 136.122 53.7935H138.026C138.083 53.7935 138.127 53.8096 138.159 53.8418C138.191 53.8739 138.207 53.9181 138.207 53.9743V62.0503C138.207 62.1065 138.191 62.1507 138.159 62.1829C138.127 62.215 138.083 62.2311 138.026 62.2311H136.206C136.11 62.2311 136.038 62.1909 135.989 62.1105L133.53 58.0123C133.514 57.9882 133.498 57.9802 133.482 57.9882C133.466 57.9882 133.458 58.0043 133.458 58.0364L133.482 62.0503C133.482 62.1065 133.466 62.1507 133.434 62.1829C133.402 62.215 133.358 62.2311 133.301 62.2311H131.397C131.341 62.2311 131.297 62.215 131.264 62.1829C131.232 62.1507 131.216 62.1065 131.216 62.0503V53.9743C131.216 53.9181 131.232 53.8739 131.264 53.8418C131.297 53.8096 131.341 53.7935 131.397 53.7935H133.217C133.314 53.7935 133.386 53.8337 133.434 53.9141L135.881 58.0123C135.897 58.0364 135.913 58.0485 135.929 58.0485C135.945 58.0404 135.953 58.0203 135.953 57.9882L135.941 53.9743Z" fill="white"/>
<path d="M142.368 62.3275C141.709 62.3275 141.127 62.1949 140.62 61.9297C140.122 61.6645 139.733 61.2909 139.451 60.8087C139.178 60.3266 139.041 59.7721 139.041 59.1453V56.8672C139.041 56.2404 139.178 55.69 139.451 55.2159C139.733 54.7337 140.122 54.3601 140.62 54.0949C141.127 53.8297 141.709 53.6971 142.368 53.6971C143.011 53.6971 143.586 53.8257 144.092 54.0828C144.598 54.3319 144.988 54.6735 145.261 55.1074C145.542 55.5413 145.683 56.0154 145.683 56.5297V56.5418C145.683 56.598 145.667 56.6422 145.635 56.6744C145.603 56.7065 145.558 56.7226 145.502 56.7226H143.61C143.489 56.7226 143.429 56.6864 143.429 56.6141C143.429 56.3489 143.333 56.1199 143.14 55.927C142.955 55.7342 142.698 55.6377 142.368 55.6377C142.047 55.6377 141.79 55.7462 141.597 55.9632C141.404 56.1721 141.308 56.4534 141.308 56.8069V59.2177C141.308 59.5632 141.416 59.8445 141.633 60.0614C141.858 60.2784 142.135 60.3869 142.465 60.3869C142.762 60.3869 143.003 60.3065 143.188 60.1458C143.381 59.977 143.477 59.748 143.477 59.4587V59.302C143.477 59.2619 143.457 59.2418 143.417 59.2418H142.356C142.3 59.2418 142.256 59.2257 142.224 59.1936C142.191 59.1614 142.175 59.1172 142.175 59.061V57.6145C142.175 57.5583 142.191 57.5141 142.224 57.4819C142.256 57.4498 142.3 57.4337 142.356 57.4337H145.502C145.558 57.4337 145.603 57.4498 145.635 57.4819C145.667 57.5141 145.683 57.5583 145.683 57.6145V59.2659C145.683 59.8605 145.542 60.3909 145.261 60.857C144.988 61.323 144.598 61.6846 144.092 61.9418C143.594 62.1989 143.019 62.3275 142.368 62.3275Z" fill="white"/>
<path d="M98.4068 82.6933C97.0805 82.6933 95.9079 82.4345 94.8889 81.9169C93.8861 81.3993 93.1016 80.6715 92.5355 79.7334C91.9856 78.7791 91.7106 77.6792 91.7106 76.4338V71.5329C91.7106 70.3037 91.9856 69.22 92.5355 68.2819C93.1016 67.3438 93.8861 66.6159 94.8889 66.0983C95.9079 65.5808 97.0805 65.322 98.4068 65.322C99.7331 65.322 100.898 65.5646 101.901 66.0498C102.92 66.5351 103.704 67.2225 104.254 68.1121C104.82 68.9855 105.103 70.0045 105.103 71.169C105.103 71.3146 104.982 71.4035 104.739 71.4359L100.906 71.6785H100.833C100.639 71.6785 100.542 71.5896 100.542 71.4116C100.542 70.7485 100.348 70.2228 99.9596 69.8346C99.5714 69.4303 99.0538 69.2281 98.4068 69.2281C97.7599 69.2281 97.2423 69.4303 96.8541 69.8346C96.4659 70.2228 96.2718 70.7485 96.2718 71.4116V76.6279C96.2718 77.2749 96.4659 77.8005 96.8541 78.2049C97.2423 78.5931 97.7599 78.7872 98.4068 78.7872C99.0538 78.7872 99.5714 78.5931 99.9596 78.2049C100.348 77.8005 100.542 77.2749 100.542 76.6279C100.542 76.5308 100.574 76.458 100.639 76.4095C100.704 76.361 100.793 76.3448 100.906 76.361L104.739 76.5551C104.982 76.5713 105.103 76.6521 105.103 76.7977C105.103 77.9623 104.82 78.9893 104.254 79.8789C103.704 80.7685 102.92 81.464 101.901 81.9654C100.898 82.4507 99.7331 82.6933 98.4068 82.6933Z" fill="white"/>
<path d="M119.014 69.0583C119.014 69.1715 118.982 69.2604 118.917 69.3251C118.852 69.3898 118.763 69.4222 118.65 69.4222H111.396C111.315 69.4222 111.275 69.4626 111.275 69.5435V71.8241C111.275 71.905 111.315 71.9454 111.396 71.9454H115.884C115.998 71.9454 116.086 71.9777 116.151 72.0424C116.216 72.1071 116.248 72.1961 116.248 72.3093V75.4633C116.248 75.5765 116.216 75.6655 116.151 75.7302C116.086 75.7949 115.998 75.8272 115.884 75.8272H111.396C111.315 75.8272 111.275 75.8677 111.275 75.9486V78.4718C111.275 78.5526 111.315 78.5931 111.396 78.5931H118.65C118.763 78.5931 118.852 78.6254 118.917 78.6901C118.982 78.7548 119.014 78.8438 119.014 78.957V82.1353C119.014 82.2485 118.982 82.3374 118.917 82.4021C118.852 82.4668 118.763 82.4992 118.65 82.4992H107.077C106.964 82.4992 106.875 82.4668 106.81 82.4021C106.746 82.3374 106.713 82.2485 106.713 82.1353V65.88C106.713 65.7668 106.746 65.6778 106.81 65.6131C106.875 65.5484 106.964 65.5161 107.077 65.5161H118.65C118.763 65.5161 118.852 65.5484 118.917 65.6131C118.982 65.6778 119.014 65.7668 119.014 65.88V69.0583Z" fill="white"/>
<path d="M130.061 65.88C130.061 65.7668 130.093 65.6778 130.158 65.6131C130.222 65.5484 130.311 65.5161 130.425 65.5161H134.258C134.371 65.5161 134.46 65.5484 134.525 65.6131C134.589 65.6778 134.622 65.7668 134.622 65.88V82.1353C134.622 82.2485 134.589 82.3374 134.525 82.4021C134.46 82.4668 134.371 82.4992 134.258 82.4992H130.594C130.4 82.4992 130.255 82.4183 130.158 82.2566L125.208 74.0076C125.176 73.9591 125.144 73.9429 125.111 73.9591C125.079 73.9591 125.063 73.9915 125.063 74.0562L125.111 82.1353C125.111 82.2485 125.079 82.3374 125.014 82.4021C124.95 82.4668 124.861 82.4992 124.747 82.4992H120.914C120.801 82.4992 120.712 82.4668 120.647 82.4021C120.582 82.3374 120.55 82.2485 120.55 82.1353V65.88C120.55 65.7668 120.582 65.6778 120.647 65.6131C120.712 65.5484 120.801 65.5161 120.914 65.5161H124.578C124.772 65.5161 124.917 65.5969 125.014 65.7587L129.939 74.0076C129.972 74.0562 130.004 74.0804 130.036 74.0804C130.069 74.0642 130.085 74.0238 130.085 73.9591L130.061 65.88Z" fill="white"/>
<path d="M149.208 65.5161C149.321 65.5161 149.41 65.5484 149.475 65.6131C149.54 65.6778 149.572 65.7668 149.572 65.88V69.0825C149.572 69.1957 149.54 69.2847 149.475 69.3494C149.41 69.4141 149.321 69.4464 149.208 69.4464H145.132C145.051 69.4464 145.011 69.4869 145.011 69.5678V82.1353C145.011 82.2485 144.978 82.3374 144.914 82.4021C144.849 82.4668 144.76 82.4992 144.647 82.4992H140.813C140.7 82.4992 140.611 82.4668 140.547 82.4021C140.482 82.3374 140.45 82.2485 140.45 82.1353V69.5678C140.45 69.4869 140.409 69.4464 140.328 69.4464H136.374C136.26 69.4464 136.171 69.4141 136.107 69.3494C136.042 69.2847 136.01 69.1957 136.01 69.0825V65.88C136.01 65.7668 136.042 65.6778 136.107 65.6131C136.171 65.5484 136.26 65.5161 136.374 65.5161H149.208Z" fill="white"/>
<path d="M159.876 82.4992C159.666 82.4992 159.529 82.4102 159.464 82.2323L156.795 76.0699C156.763 76.0052 156.714 75.9728 156.65 75.9728H155.631C155.55 75.9728 155.509 76.0133 155.509 76.0941V82.1353C155.509 82.2485 155.477 82.3374 155.412 82.4021C155.348 82.4668 155.259 82.4992 155.145 82.4992H151.312C151.199 82.4992 151.11 82.4668 151.045 82.4021C150.981 82.3374 150.948 82.2485 150.948 82.1353V65.88C150.948 65.7668 150.981 65.6778 151.045 65.6131C151.11 65.5484 151.199 65.5161 151.312 65.5161H158.663C159.763 65.5161 160.726 65.7425 161.551 66.1954C162.392 66.6483 163.039 67.2872 163.491 68.1121C163.96 68.9208 164.195 69.8589 164.195 70.9264C164.195 71.9939 163.928 72.932 163.394 73.7407C162.877 74.5333 162.157 75.1156 161.235 75.4876C161.154 75.5199 161.13 75.5765 161.162 75.6574L164.244 82.0625C164.276 82.1595 164.292 82.2161 164.292 82.2323C164.292 82.3132 164.26 82.3779 164.195 82.4264C164.13 82.4749 164.049 82.4992 163.952 82.4992H159.876ZM155.631 69.4222C155.55 69.4222 155.509 69.4626 155.509 69.5435V72.3821C155.509 72.463 155.55 72.5034 155.631 72.5034H157.911C158.429 72.5034 158.849 72.3659 159.173 72.091C159.496 71.7998 159.658 71.4278 159.658 70.9749C159.658 70.5059 159.496 70.1339 159.173 69.8589C158.849 69.5678 158.429 69.4222 157.911 69.4222H155.631Z" fill="white"/>
<path d="M177.229 82.4992C177.003 82.4992 176.865 82.3941 176.817 82.1838L176.283 80.2914C176.251 80.2267 176.21 80.1943 176.162 80.1943H171.018C170.97 80.1943 170.929 80.2267 170.897 80.2914L170.363 82.1838C170.315 82.3941 170.177 82.4992 169.951 82.4992H165.802C165.511 82.4992 165.406 82.3617 165.487 82.0867L170.606 65.8072C170.67 65.6131 170.808 65.5161 171.018 65.5161H176.162C176.372 65.5161 176.509 65.6131 176.574 65.8072L181.693 82.0867C181.71 82.1191 181.718 82.1676 181.718 82.2323C181.718 82.4102 181.604 82.4992 181.378 82.4992H177.229ZM171.964 76.5551C171.948 76.6521 171.981 76.7007 172.061 76.7007H175.094C175.191 76.7007 175.224 76.6521 175.191 76.5551L173.638 71.1205C173.622 71.072 173.598 71.0477 173.566 71.0477C173.533 71.0477 173.509 71.072 173.493 71.1205L171.964 76.5551Z" fill="white"/>
<path d="M183.558 82.4992C183.445 82.4992 183.356 82.4668 183.291 82.4021C183.227 82.3374 183.194 82.2485 183.194 82.1353V65.88C183.194 65.7668 183.227 65.6778 183.291 65.6131C183.356 65.5484 183.445 65.5161 183.558 65.5161H187.392C187.505 65.5161 187.594 65.5484 187.658 65.6131C187.723 65.6778 187.756 65.7668 187.756 65.88V78.4718C187.756 78.5526 187.796 78.5931 187.877 78.5931H195.374C195.487 78.5931 195.576 78.6254 195.641 78.6901C195.705 78.7548 195.738 78.8438 195.738 78.957V82.1353C195.738 82.2485 195.705 82.3374 195.641 82.4021C195.576 82.4668 195.487 82.4992 195.374 82.4992H183.558Z" fill="white"/>
<path d="M133.807 96.2042C133.694 96.2042 133.626 96.1519 133.602 96.0475L133.336 95.1073C133.32 95.0752 133.3 95.0591 133.276 95.0591H130.721C130.697 95.0591 130.677 95.0752 130.661 95.1073L130.395 96.0475C130.371 96.1519 130.303 96.2042 130.19 96.2042H128.129C127.985 96.2042 127.932 96.1359 127.973 95.9993L130.516 87.9113C130.548 87.8149 130.616 87.7667 130.721 87.7667H133.276C133.381 87.7667 133.449 87.8149 133.481 87.9113L136.024 95.9993C136.032 96.0153 136.036 96.0394 136.036 96.0716C136.036 96.16 135.98 96.2042 135.868 96.2042H133.807ZM131.191 93.251C131.183 93.2993 131.199 93.3234 131.239 93.3234H132.746C132.794 93.3234 132.81 93.2993 132.794 93.251L132.023 90.551C132.015 90.5269 132.003 90.5149 131.986 90.5149C131.97 90.5149 131.958 90.5269 131.95 90.551L131.191 93.251Z" fill="white"/>
<path d="M141.206 96.2042C141.101 96.2042 141.033 96.16 141.001 96.0716L139.675 93.01C139.659 92.9778 139.635 92.9618 139.603 92.9618H139.097C139.056 92.9618 139.036 92.9818 139.036 93.022V96.0234C139.036 96.0796 139.02 96.1238 138.988 96.156C138.956 96.1881 138.912 96.2042 138.855 96.2042H136.951C136.895 96.2042 136.851 96.1881 136.818 96.156C136.786 96.1238 136.77 96.0796 136.77 96.0234V87.9475C136.77 87.8912 136.786 87.847 136.818 87.8149C136.851 87.7827 136.895 87.7667 136.951 87.7667H140.603C141.15 87.7667 141.628 87.8792 142.038 88.1042C142.455 88.3292 142.777 88.6466 143.002 89.0564C143.235 89.4582 143.351 89.9242 143.351 90.4546C143.351 90.985 143.219 91.451 142.954 91.8528C142.697 92.2466 142.339 92.5359 141.881 92.7207C141.841 92.7368 141.829 92.7649 141.845 92.8051L143.376 95.9872C143.392 96.0354 143.4 96.0636 143.4 96.0716C143.4 96.1118 143.384 96.1439 143.351 96.168C143.319 96.1921 143.279 96.2042 143.231 96.2042H141.206ZM139.097 89.7073C139.056 89.7073 139.036 89.7274 139.036 89.7676V91.1778C139.036 91.218 139.056 91.2381 139.097 91.2381H140.23C140.487 91.2381 140.696 91.1698 140.856 91.0332C141.017 90.8885 141.097 90.7037 141.097 90.4787C141.097 90.2457 141.017 90.0609 140.856 89.9242C140.696 89.7796 140.487 89.7073 140.23 89.7073H139.097Z" fill="white"/>
<path d="M149.827 96.2042C149.715 96.2042 149.646 96.1519 149.622 96.0475L149.357 95.1073C149.341 95.0752 149.321 95.0591 149.297 95.0591H146.741C146.717 95.0591 146.697 95.0752 146.681 95.1073L146.416 96.0475C146.392 96.1519 146.323 96.2042 146.211 96.2042H144.15C144.005 96.2042 143.953 96.1359 143.993 95.9993L146.536 87.9113C146.569 87.8149 146.637 87.7667 146.741 87.7667H149.297C149.401 87.7667 149.469 87.8149 149.502 87.9113L152.045 95.9993C152.053 96.0153 152.057 96.0394 152.057 96.0716C152.057 96.16 152.001 96.2042 151.888 96.2042H149.827ZM147.211 93.251C147.203 93.2993 147.219 93.3234 147.26 93.3234H148.766C148.815 93.3234 148.831 93.2993 148.815 93.251L148.043 90.551C148.035 90.5269 148.023 90.5149 148.007 90.5149C147.991 90.5149 147.979 90.5269 147.971 90.551L147.211 93.251Z" fill="white"/>
<path d="M155.81 96.3006C155.159 96.3006 154.58 96.1761 154.074 95.9269C153.576 95.6778 153.19 95.3243 152.917 94.8662C152.644 94.4082 152.507 93.8778 152.507 93.2752V87.9475C152.507 87.8912 152.523 87.847 152.555 87.8149C152.587 87.7827 152.632 87.7667 152.688 87.7667H154.592C154.649 87.7667 154.693 87.7827 154.725 87.8149C154.757 87.847 154.773 87.8912 154.773 87.9475V93.2752C154.773 93.6046 154.865 93.8698 155.05 94.0707C155.243 94.2635 155.496 94.36 155.81 94.36C156.115 94.36 156.36 94.2595 156.545 94.0586C156.738 93.8577 156.834 93.5966 156.834 93.2752V87.9475C156.834 87.8912 156.85 87.847 156.882 87.8149C156.915 87.7827 156.959 87.7667 157.015 87.7667H158.92C158.976 87.7667 159.02 87.7827 159.052 87.8149C159.084 87.847 159.1 87.8912 159.1 87.9475V93.2752C159.1 93.8778 158.964 94.4082 158.69 94.8662C158.417 95.3243 158.032 95.6778 157.533 95.9269C157.035 96.1761 156.461 96.3006 155.81 96.3006Z" fill="white"/>
<path d="M163.213 96.3006C162.554 96.3006 161.971 96.172 161.465 95.9149C160.967 95.6577 160.577 95.2961 160.296 94.8301C160.023 94.356 159.886 93.8095 159.886 93.1908V90.7559C159.886 90.1452 160.023 89.6068 160.296 89.1408C160.577 88.6747 160.967 88.3131 161.465 88.0559C161.971 87.7988 162.554 87.6702 163.213 87.6702C163.872 87.6702 164.45 87.7908 164.949 88.0318C165.455 88.2729 165.845 88.6144 166.118 89.0564C166.399 89.4903 166.54 89.9966 166.54 90.5751C166.54 90.6475 166.479 90.6917 166.359 90.7077L164.454 90.8283H164.418C164.322 90.8283 164.274 90.7841 164.274 90.6957C164.274 90.3662 164.177 90.105 163.984 89.9122C163.791 89.7113 163.534 89.6109 163.213 89.6109C162.891 89.6109 162.634 89.7113 162.441 89.9122C162.249 90.105 162.152 90.3662 162.152 90.6957V93.2872C162.152 93.6086 162.249 93.8698 162.441 94.0707C162.634 94.2635 162.891 94.36 163.213 94.36C163.534 94.36 163.791 94.2635 163.984 94.0707C164.177 93.8698 164.274 93.6086 164.274 93.2872C164.274 93.239 164.29 93.2028 164.322 93.1787C164.354 93.1546 164.398 93.1466 164.454 93.1546L166.359 93.251C166.479 93.2591 166.54 93.2993 166.54 93.3716C166.54 93.9502 166.399 94.4604 166.118 94.9024C165.845 95.3444 165.455 95.6899 164.949 95.939C164.45 96.1801 163.872 96.3006 163.213 96.3006Z" fill="white"/>
<path d="M172.663 96.2042C172.55 96.2042 172.482 96.1519 172.458 96.0475L172.193 95.1073C172.177 95.0752 172.157 95.0591 172.133 95.0591H169.577C169.553 95.0591 169.533 95.0752 169.517 95.1073L169.252 96.0475C169.228 96.1519 169.159 96.2042 169.047 96.2042H166.986C166.841 96.2042 166.789 96.1359 166.829 95.9993L169.372 87.9113C169.404 87.8149 169.473 87.7667 169.577 87.7667H172.133C172.237 87.7667 172.305 87.8149 172.338 87.9113L174.881 95.9993C174.889 96.0153 174.893 96.0394 174.893 96.0716C174.893 96.16 174.837 96.2042 174.724 96.2042H172.663ZM170.047 93.251C170.039 93.2993 170.055 93.3234 170.096 93.3234H171.602C171.65 93.3234 171.667 93.2993 171.65 93.251L170.879 90.551C170.871 90.5269 170.859 90.5149 170.843 90.5149C170.827 90.5149 170.815 90.5269 170.807 90.551L170.047 93.251ZM169.999 87.0555C169.935 87.0555 169.887 87.0354 169.854 86.9952C169.83 86.947 169.834 86.8948 169.867 86.8385L170.457 85.7296C170.497 85.6412 170.57 85.597 170.674 85.597H172.301C172.398 85.597 172.446 85.6332 172.446 85.7055C172.446 85.7376 172.434 85.7738 172.41 85.814L171.566 86.947C171.518 87.0193 171.446 87.0555 171.349 87.0555H169.999Z" fill="white"/>
<path d="M180.062 96.2042C179.958 96.2042 179.89 96.16 179.857 96.0716L178.531 93.01C178.515 92.9778 178.491 92.9618 178.459 92.9618H177.953C177.913 92.9618 177.893 92.9818 177.893 93.022V96.0234C177.893 96.0796 177.877 96.1238 177.844 96.156C177.812 96.1881 177.768 96.2042 177.712 96.2042H175.807C175.751 96.2042 175.707 96.1881 175.675 96.156C175.643 96.1238 175.627 96.0796 175.627 96.0234V87.9475C175.627 87.8912 175.643 87.847 175.675 87.8149C175.707 87.7827 175.751 87.7667 175.807 87.7667H179.46C180.006 87.7667 180.484 87.8792 180.894 88.1042C181.312 88.3292 181.633 88.6466 181.858 89.0564C182.091 89.4582 182.208 89.9242 182.208 90.4546C182.208 90.985 182.075 91.451 181.81 91.8528C181.553 92.2466 181.195 92.5359 180.737 92.7207C180.697 92.7368 180.685 92.7649 180.701 92.8051L182.232 95.9872C182.248 96.0354 182.256 96.0636 182.256 96.0716C182.256 96.1118 182.24 96.1439 182.208 96.168C182.176 96.1921 182.136 96.2042 182.087 96.2042H180.062ZM177.953 89.7073C177.913 89.7073 177.893 89.7274 177.893 89.7676V91.1778C177.893 91.218 177.913 91.2381 177.953 91.2381H179.086C179.343 91.2381 179.552 91.1698 179.713 91.0332C179.873 90.8885 179.954 90.7037 179.954 90.4787C179.954 90.2457 179.873 90.0609 179.713 89.9242C179.552 89.7796 179.343 89.7073 179.086 89.7073H177.953Z" fill="white"/>
<path d="M183.223 96.2042C183.167 96.2042 183.123 96.1881 183.091 96.156C183.058 96.1238 183.042 96.0796 183.042 96.0234V87.9475C183.042 87.8912 183.058 87.847 183.091 87.8149C183.123 87.7827 183.167 87.7667 183.223 87.7667H185.128C185.184 87.7667 185.228 87.7827 185.26 87.8149C185.292 87.847 185.308 87.8912 185.308 87.9475V96.0234C185.308 96.0796 185.292 96.1238 185.26 96.156C185.228 96.1881 185.184 96.2042 185.128 96.2042H183.223Z" fill="white"/>
<path d="M191.885 96.2042C191.773 96.2042 191.704 96.1519 191.68 96.0475L191.415 95.1073C191.399 95.0752 191.379 95.0591 191.355 95.0591H188.799C188.775 95.0591 188.755 95.0752 188.739 95.1073L188.474 96.0475C188.45 96.1519 188.382 96.2042 188.269 96.2042H186.208C186.063 96.2042 186.011 96.1359 186.051 95.9993L188.595 87.9113C188.627 87.8149 188.695 87.7667 188.799 87.7667H191.355C191.459 87.7667 191.528 87.8149 191.56 87.9113L194.103 95.9993C194.111 96.0153 194.115 96.0394 194.115 96.0716C194.115 96.16 194.059 96.2042 193.946 96.2042H191.885ZM189.27 93.251C189.262 93.2993 189.278 93.3234 189.318 93.3234H190.824C190.873 93.3234 190.889 93.2993 190.873 93.251L190.101 90.551C190.093 90.5269 190.081 90.5149 190.065 90.5149C190.049 90.5149 190.037 90.5269 190.029 90.551L189.27 93.251Z" fill="white"/>
<path d="M2.76145 54.9368C45.0934 52.9005 67.1354 59.527 80.7433 79.2291C64.756 88.0086 54.5543 90.6887 32.2262 82.9889C17.0025 77.739 11.7807 68.7574 2.76145 54.9368Z" fill="#6C1CD1"/>
<path d="M28.5967 7.56927C60.6998 31.054 79.6321 51.0246 80.9963 78.5538C65.1829 75.2269 50.6591 72.5229 40.2498 47.8748C33.6175 32.17 32.5713 27.0437 28.5967 7.56927Z" fill="#F75111" fill-opacity="0.8"/>
<path d="M28.6722 60.0852C56.7817 60.2183 71.5752 65.3832 81.0269 78.9203C70.5745 84.1801 63.845 85.5994 48.8394 79.713C38.6083 75.6995 34.9523 69.5627 28.6722 60.0852Z" fill="#372B2B"/>
<path d="M3.69619 78.2324C41.2348 65.2969 63.2445 65.3279 81.8355 79.0891C70.2256 91.0257 61.8807 96.0704 39.269 95.1698C23.8519 94.5559 16.2624 88.0241 3.69619 78.2324Z" fill="#E41D7F" fill-opacity="0.85"/>
<path d="M30.7365 100.756C51.0314 82.3876 65.2759 76.1581 81.5374 79.085C77.7045 89.4975 73.8609 94.8741 58.9592 100.756C48.7991 104.767 41.8791 103.027 30.7365 100.756Z" fill="#230A44" fill-opacity="0.85"/>
</svg>
