<svg width="60" height="60" viewBox="0 0 60 60" fill="none" xmlns="http://www.w3.org/2000/svg">
<path d="M30 0C13.4814 0 0 13.4823 0 30C0 46.5186 13.4823 60 30 60C46.5186 60 60 46.5176 60 30C60 13.4814 46.5177 0 30 0ZM30 56.4844C15.3964 56.4844 3.51562 44.6036 3.51562 30C3.51562 15.3964 15.3964 3.51562 30 3.51562C44.6036 3.51562 56.4844 15.3964 56.4844 30C56.4844 44.6036 44.6036 56.4844 30 56.4844Z" fill="#230A44"/>
<path d="M15.0845 46.6733C16.0553 46.6733 16.8423 45.8863 16.8423 44.9155C16.8423 43.9447 16.0553 43.1577 15.0845 43.1577C14.1137 43.1577 13.3267 43.9447 13.3267 44.9155C13.3267 45.8863 14.1137 46.6733 15.0845 46.6733Z" fill="#230A44"/>
<path d="M44.9155 16.8423C45.8863 16.8423 46.6733 16.0553 46.6733 15.0845C46.6733 14.1137 45.8863 13.3267 44.9155 13.3267C43.9447 13.3267 43.1577 14.1137 43.1577 15.0845C43.1577 16.0553 43.9447 16.8423 44.9155 16.8423Z" fill="#230A44"/>
<path d="M13.8415 13.8415C13.155 14.528 13.155 15.6409 13.8415 16.3274C14.528 17.0139 15.6409 17.0139 16.3274 16.3274C17.0139 15.6409 17.0139 14.528 16.3274 13.8415C15.641 13.155 14.528 13.155 13.8415 13.8415Z" fill="#230A44"/>
<path d="M43.6726 43.6726C42.9861 44.3591 42.9861 45.472 43.6726 46.1585C44.3591 46.845 45.472 46.845 46.1585 46.1585C46.845 45.472 46.845 44.3591 46.1585 43.6726C45.472 42.9861 44.359 42.9861 43.6726 43.6726Z" fill="#230A44"/>
<path d="M30 14.1797C30.9708 14.1797 31.7578 13.3927 31.7578 12.4219V8.90625C31.7578 7.93547 30.9708 7.14844 30 7.14844C29.0292 7.14844 28.2422 7.93547 28.2422 8.90625V12.4219C28.2422 13.3927 29.0292 14.1797 30 14.1797Z" fill="#230A44"/>
<path d="M30 45.8203C29.0292 45.8203 28.2422 46.6073 28.2422 47.5781V51.0938C28.2422 52.0645 29.0292 52.8516 30 52.8516C30.9708 52.8516 31.7578 52.0645 31.7578 51.0938V47.5781C31.7578 46.6073 30.9708 45.8203 30 45.8203Z" fill="#230A44"/>
<path d="M14.1797 30C14.1797 29.0292 13.3927 28.2422 12.4219 28.2422H8.90625C7.93547 28.2422 7.14844 29.0292 7.14844 30C7.14844 30.9708 7.93547 31.7578 8.90625 31.7578H12.4219C13.3927 31.7578 14.1797 30.9708 14.1797 30Z" fill="#230A44"/>
<path d="M45.8203 30C45.8203 30.9708 46.6073 31.7578 47.5781 31.7578H51.0938C52.0645 31.7578 52.8516 30.9708 52.8516 30C52.8516 29.0292 52.0645 28.2422 51.0938 28.2422H47.5781C46.6073 28.2422 45.8203 29.0292 45.8203 30Z" fill="#230A44"/>
<path d="M31.7578 29.2719V19.4531C31.7578 18.4823 30.9708 17.6953 30 17.6953C29.0292 17.6953 28.2422 18.4823 28.2422 19.4531V30C28.2422 30.4662 28.4275 30.9132 28.7571 31.243L39.304 41.7899C39.9904 42.4763 41.1034 42.4764 41.7899 41.7899C42.4764 41.1034 42.4764 39.9905 41.7899 39.304L31.7578 29.2719Z" fill="#230A44"/>
</svg>
