<svg width="50" height="34" viewBox="0 0 50 34" fill="none" xmlns="http://www.w3.org/2000/svg">
<path d="M42.0031 4.74004C42.0031 2.13302 39.8313 0 37.1768 0H29.9375V4.74004H37.1768V11.0206L28.7792 21.3302H20.2851V9.48009H10.6326C5.29962 9.48009 0.980148 13.7224 0.980148 18.9602V26.0702H5.80637C5.80637 30.0045 9.03995 33.1803 13.0457 33.1803C17.0515 33.1803 20.2851 30.0045 20.2851 26.0702H31.0958L42.0031 12.6796V4.74004ZM5.80637 21.3302V18.9602C5.80637 16.3531 7.97818 14.2201 10.6326 14.2201H15.4588V21.3302H5.80637ZM13.0457 28.4403C11.7185 28.4403 10.6326 27.3737 10.6326 26.0702H15.4588C15.4588 27.3737 14.3729 28.4403 13.0457 28.4403Z" fill="white"/>
<path d="M8.21949 2.37002H20.2851V7.11007H8.21949V2.37002ZM42.0031 18.9602C37.9973 18.9602 34.7637 22.136 34.7637 26.0702C34.7637 30.0045 37.9973 33.1803 42.0031 33.1803C46.0088 33.1803 49.2424 30.0045 49.2424 26.0702C49.2424 22.136 46.0088 18.9602 42.0031 18.9602ZM42.0031 28.4403C40.6759 28.4403 39.59 27.3738 39.59 26.0702C39.59 24.7667 40.6759 23.7002 42.0031 23.7002C43.3303 23.7002 44.4162 24.7667 44.4162 26.0702C44.4162 27.3738 43.3303 28.4403 42.0031 28.4403Z" fill="white"/>
</svg>
