<svg width="45" height="45" viewBox="0 0 45 45" fill="none" xmlns="http://www.w3.org/2000/svg">
<path fill-rule="evenodd" clip-rule="evenodd" d="M39.375 2.8125C40.1209 2.8125 40.8363 3.10882 41.3637 3.63626C41.8912 4.16371 42.1875 4.87908 42.1875 5.625L42.1875 39.375C42.1875 40.1209 41.8912 40.8363 41.3637 41.3637C40.8363 41.8912 40.1209 42.1875 39.375 42.1875H5.625C4.87908 42.1875 4.16371 41.8912 3.63626 41.3637C3.10882 40.8363 2.8125 40.1209 2.8125 39.375V5.625C2.8125 4.87908 3.10881 4.16371 3.63626 3.63626C4.16371 3.10882 4.87908 2.8125 5.625 2.8125L39.375 2.8125ZM39.375 45C40.8668 45 42.2976 44.4074 43.3525 43.3525C44.4074 42.2976 45 40.8668 45 39.375L45 5.625C45 4.13316 44.4074 2.70242 43.3525 1.64753C42.2976 0.592635 40.8668 1.54047e-06 39.375 1.47526e-06L5.625 0C4.13316 -6.52105e-08 2.70242 0.592633 1.64753 1.64753C0.592636 2.70242 0 4.13316 0 5.625V39.375C0 40.8668 0.592632 42.2976 1.64753 43.3525C2.70242 44.4074 4.13316 45 5.625 45H39.375ZM32.3437 21.0938C32.7167 21.0938 33.0744 21.2419 33.3381 21.5056C33.6018 21.7694 33.75 22.127 33.75 22.5C33.75 22.873 33.6018 23.2306 33.3381 23.4944C33.0744 23.7581 32.7167 23.9063 32.3437 23.9063L16.0509 23.9062L22.0894 29.9419C22.3534 30.2059 22.5018 30.5641 22.5018 30.9375C22.5018 31.3109 22.3534 31.6691 22.0894 31.9331C21.8253 32.1972 21.4672 32.3455 21.0937 32.3455C20.7203 32.3455 20.3622 32.1972 20.0981 31.9331L11.6606 23.4956C11.5297 23.365 11.4258 23.2098 11.3549 23.039C11.284 22.8681 11.2475 22.685 11.2475 22.5C11.2475 22.315 11.284 22.1319 11.3549 21.961C11.4258 21.7902 11.5297 21.635 11.6606 21.5044L20.0981 13.0669C20.3622 12.8028 20.7203 12.6545 21.0938 12.6545C21.4672 12.6545 21.8253 12.8028 22.0894 13.0669C22.3534 13.3309 22.5018 13.6891 22.5018 14.0625C22.5018 14.4359 22.3534 14.7941 22.0894 15.0581L16.0509 21.0938L32.3437 21.0938Z" fill="white"/>
</svg>
