<svg width="45" height="43" viewBox="0 0 45 43" fill="none" xmlns="http://www.w3.org/2000/svg">
<path d="M37.9485 2.1591C37.5541 1.50208 36.9979 0.958255 36.3335 0.58007C35.6691 0.201885 34.919 0.00210491 34.1554 0H10.1045C8.55987 0 7.10593 0.827173 6.31147 2.1591L0.31646 12.1964C0.109003 12.5419 -0.000431456 12.9379 1.2784e-06 13.3415C0.00883934 15.4877 0.79556 17.5572 2.213 19.1629V37.8009C2.213 40.2536 4.19806 42.2481 6.63899 42.2481H37.6209C40.0619 42.2481 42.0469 40.2536 42.0469 37.8009V19.1629C43.4644 17.5572 44.2511 15.4877 44.2599 13.3415C44.2604 12.9379 44.1509 12.5419 43.9435 12.1964L37.9485 2.1591ZM39.7985 13.8996C39.6619 14.9732 39.1409 15.9601 38.3329 16.6758C37.5249 17.3916 36.4851 17.7871 35.4079 17.7887C32.967 17.7887 30.982 15.7941 30.982 13.3415C30.982 13.1903 30.9266 13.0569 30.8956 12.9146L30.9399 12.9057L29.2558 4.44717H34.1554L39.7985 13.8996ZM19.5164 4.44717H24.7413L26.5405 13.486C26.463 15.8697 24.52 17.7887 22.13 17.7887C19.7399 17.7887 17.7969 15.8697 17.7195 13.486L19.5164 4.44717ZM10.1045 4.44717H15.0041L13.3222 12.9057L13.3665 12.9146C13.3333 13.0569 13.278 13.1903 13.278 13.3415C13.278 15.7941 11.2929 17.7887 8.85199 17.7887C7.77481 17.7871 6.73505 17.3916 5.92702 16.6758C5.11899 15.9601 4.598 14.9732 4.4614 13.8996L10.1045 4.44717ZM17.704 37.8009V31.1302H26.556V37.8009H17.704ZM30.982 37.8009V31.1302C30.982 28.6776 28.9969 26.683 26.556 26.683H17.704C15.263 26.683 13.278 28.6776 13.278 31.1302V37.8009H6.63899V21.9201C7.34936 22.1047 8.08186 22.2358 8.85199 22.2358C10.1086 22.2365 11.3508 21.9677 12.4957 21.4473C13.6406 20.927 14.6618 20.1671 15.491 19.2184C17.1131 21.0685 19.4899 22.2358 22.13 22.2358C24.7701 22.2358 27.1468 21.0685 28.769 19.2184C29.5982 20.1671 30.6193 20.927 31.7642 21.4473C32.9091 21.9677 34.1514 22.2365 35.4079 22.2358C36.1781 22.2358 36.9106 22.1047 37.6209 21.9201V37.8009H30.982Z" fill="white"/>
</svg>
