<svg width="163" height="164" viewBox="0 0 163 164" fill="none" xmlns="http://www.w3.org/2000/svg">
<circle cx="81.6459" cy="81.8635" r="81.2983" fill="white"/>
<path d="M63.7009 111.758L64.9933 112.403C70.3792 115.624 76.4108 117.127 82.4426 117.127C101.4 117.127 116.91 101.665 116.91 82.7667C116.91 73.7471 113.248 64.9421 106.785 58.4994C100.322 52.0567 91.7054 48.406 82.4426 48.406C63.4857 48.406 47.9751 63.8683 48.1907 82.9816C48.1907 89.424 50.1295 95.6521 53.3607 101.021L54.2223 102.309L50.7758 114.98L63.7009 111.758Z" fill="#00E676"/>
<path d="M110.173 55.2621C102.976 47.9137 93.0275 43.9243 82.867 43.9243C61.2763 43.9243 43.9188 61.3509 44.1303 82.5567C44.1303 89.2755 46.0354 95.7845 49.2107 101.663L43.707 121.609L64.2395 116.36C69.9548 119.51 76.3048 120.98 82.6554 120.98C104.035 120.98 121.392 103.553 121.392 82.3472C121.392 72.059 117.37 62.4008 110.173 55.2621H110.173ZM82.867 114.471C77.1517 114.471 71.4365 113.002 66.5679 110.062L65.298 109.432L53.0209 112.581L56.1959 100.614L55.3493 99.3539C46.0354 84.447 50.4807 64.7103 65.7213 55.4719C80.9619 46.2338 100.648 50.6431 109.962 65.7601C119.275 80.8772 114.83 100.403 99.5896 109.642C94.7207 112.791 88.794 114.471 82.867 114.471V114.471ZM101.494 91.1657L99.166 90.1159C99.166 90.1159 95.7795 88.6461 93.6626 87.5963C93.4508 87.5963 93.2393 87.3862 93.0275 87.3862C92.3923 87.3862 91.969 87.5963 91.5457 87.8063C91.5457 87.8063 91.3342 88.0161 88.3707 91.3755C88.1589 91.7954 87.7355 92.0055 87.3122 92.0055H87.1004C86.8889 92.0055 86.4656 91.7954 86.2538 91.5856L85.1953 91.1657C82.867 90.1159 80.7504 88.8559 79.0568 87.1764C78.6335 86.7565 77.9984 86.3366 77.575 85.9167C76.0933 84.447 74.6115 82.7671 73.5534 80.8775L73.3416 80.4576C73.1301 80.2475 73.1301 80.0377 72.9183 79.6178C72.9183 79.198 72.9183 78.7781 73.1301 78.568C73.1301 78.568 73.9767 77.5181 74.6115 76.8884C75.0352 76.4683 75.2467 75.8386 75.67 75.4187C76.0933 74.7887 76.3051 73.9489 76.0933 73.319C75.8818 72.2691 73.3416 66.6002 72.7068 65.3406C72.2831 64.7106 71.8601 64.5008 71.225 64.2907H68.8966C68.473 64.2907 68.05 64.5008 67.6264 64.5008L67.4146 64.7106C66.9912 64.9207 66.5679 65.3406 66.1446 65.5503C65.7213 65.9705 65.5095 66.3901 65.0862 66.8103C63.6044 68.6999 62.7578 71.0094 62.7578 73.319C62.7578 74.9985 63.1811 76.6783 63.8162 78.1481L64.028 78.7781C65.9331 82.7671 68.473 86.3366 71.8601 89.4859L72.7068 90.3257C73.3416 90.9556 73.9767 91.3755 74.4 92.0052C78.8453 95.7848 83.9254 98.5142 89.6406 99.9839C90.2757 100.194 91.1224 100.194 91.7575 100.404H93.8741C94.9325 100.404 96.2025 99.9839 97.0494 99.564C97.6842 99.1441 98.1075 99.1441 98.5309 98.7243L98.9545 98.3041C99.3778 97.8842 99.8011 97.6744 100.224 97.2545C100.648 96.8346 101.071 96.4147 101.283 95.9946C101.706 95.1548 101.918 94.1049 102.13 93.0554V91.5856C102.13 91.5856 101.918 91.3755 101.494 91.1657Z" fill="white"/>
</svg>
