<svg width="476" height="271" viewBox="0 0 476 271" fill="none" xmlns="http://www.w3.org/2000/svg">
<path d="M229.896 150.336C228.267 150.336 226.843 150.074 225.621 149.551C224.4 149.008 223.451 148.242 222.772 147.254C222.113 146.265 221.784 145.121 221.784 143.823V143.416C221.784 143.28 221.822 143.173 221.9 143.096C221.977 143.018 222.084 142.98 222.22 142.98H226.726C226.862 142.98 226.969 143.018 227.046 143.096C227.124 143.173 227.162 143.28 227.162 143.416V143.59C227.162 144.133 227.444 144.617 228.006 145.044C228.587 145.451 229.353 145.655 230.303 145.655C231.02 145.655 231.533 145.509 231.844 145.218C232.154 144.908 232.309 144.569 232.309 144.201C232.309 143.774 232.115 143.454 231.727 143.241C231.34 143.028 230.632 142.766 229.605 142.456L228.762 142.224C226.843 141.642 225.234 140.867 223.935 139.898C222.636 138.928 221.987 137.523 221.987 135.682C221.987 134.461 222.317 133.385 222.976 132.454C223.635 131.505 224.536 130.778 225.68 130.274C226.843 129.77 228.141 129.518 229.576 129.518C231.088 129.518 232.454 129.799 233.675 130.361C234.916 130.923 235.885 131.718 236.583 132.745C237.3 133.772 237.659 134.945 237.659 136.263V136.525C237.659 136.661 237.62 136.767 237.542 136.845C237.465 136.922 237.358 136.961 237.222 136.961H232.716C232.58 136.961 232.474 136.922 232.396 136.845C232.318 136.767 232.28 136.661 232.28 136.525V136.496C232.28 135.914 232.018 135.391 231.495 134.926C230.971 134.441 230.264 134.199 229.372 134.199C228.752 134.199 228.258 134.325 227.889 134.577C227.54 134.829 227.366 135.178 227.366 135.624C227.366 135.972 227.492 136.273 227.744 136.525C228.015 136.757 228.422 136.99 228.965 137.223C229.508 137.436 230.341 137.717 231.466 138.066C231.621 138.124 232.299 138.337 233.501 138.706C234.722 139.054 235.74 139.704 236.554 140.654C237.368 141.584 237.775 142.718 237.775 144.055C237.775 145.354 237.445 146.478 236.786 147.428C236.127 148.359 235.207 149.076 234.024 149.58C232.842 150.084 231.466 150.336 229.896 150.336ZM249.974 130.186C249.974 130.051 250.013 129.944 250.09 129.867C250.168 129.789 250.274 129.75 250.41 129.75H255.004C255.14 129.75 255.246 129.789 255.324 129.867C255.401 129.944 255.44 130.051 255.44 130.186V149.667C255.44 149.803 255.401 149.909 255.324 149.987C255.246 150.064 255.14 150.103 255.004 150.103H250.41C250.274 150.103 250.168 150.064 250.09 149.987C250.013 149.909 249.974 149.803 249.974 149.667V142.282C249.974 142.185 249.925 142.136 249.828 142.136H245.293C245.196 142.136 245.147 142.185 245.147 142.282V149.667C245.147 149.803 245.109 149.909 245.031 149.987C244.953 150.064 244.847 150.103 244.711 150.103H240.117C239.982 150.103 239.875 150.064 239.797 149.987C239.72 149.909 239.681 149.803 239.681 149.667V130.186C239.681 130.051 239.72 129.944 239.797 129.867C239.875 129.789 239.982 129.75 240.117 129.75H244.711C244.847 129.75 244.953 129.789 245.031 129.867C245.109 129.944 245.147 130.051 245.147 130.186V137.31C245.147 137.407 245.196 137.455 245.293 137.455H249.828C249.925 137.455 249.974 137.407 249.974 137.31V130.186ZM265.335 150.452C263.726 150.452 262.302 150.132 261.061 149.492C259.84 148.833 258.89 147.922 258.212 146.759C257.533 145.577 257.194 144.21 257.194 142.66V137.194C257.194 135.682 257.533 134.344 258.212 133.181C258.89 132.018 259.84 131.117 261.061 130.477C262.302 129.838 263.726 129.518 265.335 129.518C266.963 129.518 268.388 129.838 269.609 130.477C270.85 131.117 271.809 132.018 272.488 133.181C273.166 134.344 273.505 135.682 273.505 137.194V142.66C273.505 144.21 273.166 145.577 272.488 146.759C271.809 147.922 270.85 148.833 269.609 149.492C268.388 150.132 266.963 150.452 265.335 150.452ZM265.335 145.771C266.149 145.771 266.799 145.509 267.283 144.986C267.787 144.443 268.039 143.726 268.039 142.834V137.135C268.039 136.244 267.787 135.536 267.283 135.013C266.799 134.47 266.149 134.199 265.335 134.199C264.54 134.199 263.891 134.47 263.387 135.013C262.902 135.536 262.66 136.244 262.66 137.135V142.834C262.66 143.726 262.902 144.443 263.387 144.986C263.891 145.509 264.54 145.771 265.335 145.771ZM284.382 129.75C285.758 129.75 286.97 130.031 288.016 130.594C289.063 131.136 289.868 131.921 290.43 132.949C291.011 133.957 291.302 135.12 291.302 136.438C291.302 137.736 291.002 138.88 290.401 139.869C289.8 140.857 288.957 141.623 287.871 142.165C286.786 142.708 285.535 142.98 284.12 142.98H281.038C280.942 142.98 280.893 143.028 280.893 143.125V149.667C280.893 149.803 280.854 149.909 280.777 149.987C280.699 150.064 280.593 150.103 280.457 150.103H275.863C275.727 150.103 275.621 150.064 275.543 149.987C275.466 149.909 275.427 149.803 275.427 149.667V130.186C275.427 130.051 275.466 129.944 275.543 129.867C275.621 129.789 275.727 129.75 275.863 129.75H284.382ZM283.481 138.618C284.198 138.618 284.77 138.434 285.196 138.066C285.642 137.678 285.865 137.174 285.865 136.554C285.865 135.914 285.642 135.401 285.196 135.013C284.77 134.625 284.198 134.431 283.481 134.431H281.038C280.942 134.431 280.893 134.48 280.893 134.577V138.473C280.893 138.57 280.942 138.618 281.038 138.618H283.481ZM301.816 129.75C303.192 129.75 304.404 130.031 305.45 130.594C306.497 131.136 307.301 131.921 307.864 132.949C308.445 133.957 308.736 135.12 308.736 136.438C308.736 137.736 308.435 138.88 307.834 139.869C307.234 140.857 306.39 141.623 305.305 142.165C304.219 142.708 302.969 142.98 301.554 142.98H298.472C298.375 142.98 298.327 143.028 298.327 143.125V149.667C298.327 149.803 298.288 149.909 298.211 149.987C298.133 150.064 298.026 150.103 297.891 150.103H293.297C293.161 150.103 293.055 150.064 292.977 149.987C292.899 149.909 292.861 149.803 292.861 149.667V130.186C292.861 130.051 292.899 129.944 292.977 129.867C293.055 129.789 293.161 129.75 293.297 129.75H301.816ZM300.915 138.618C301.632 138.618 302.204 138.434 302.63 138.066C303.076 137.678 303.299 137.174 303.299 136.554C303.299 135.914 303.076 135.401 302.63 135.013C302.204 134.625 301.632 134.431 300.915 134.431H298.472C298.375 134.431 298.327 134.48 298.327 134.577V138.473C298.327 138.57 298.375 138.618 298.472 138.618H300.915ZM310.818 150.103C310.682 150.103 310.576 150.064 310.498 149.987C310.42 149.909 310.382 149.803 310.382 149.667V130.186C310.382 130.051 310.42 129.944 310.498 129.867C310.576 129.789 310.682 129.75 310.818 129.75H315.412C315.547 129.75 315.654 129.789 315.732 129.867C315.809 129.944 315.848 130.051 315.848 130.186V149.667C315.848 149.803 315.809 149.909 315.732 149.987C315.654 150.064 315.547 150.103 315.412 150.103H310.818ZM329.502 130.186C329.502 130.051 329.541 129.944 329.619 129.867C329.696 129.789 329.803 129.75 329.938 129.75H334.532C334.668 129.75 334.775 129.789 334.852 129.867C334.93 129.944 334.968 130.051 334.968 130.186V149.667C334.968 149.803 334.93 149.909 334.852 149.987C334.775 150.064 334.668 150.103 334.532 150.103H330.142C329.909 150.103 329.735 150.006 329.619 149.812L323.687 139.927C323.649 139.869 323.61 139.849 323.571 139.869C323.532 139.869 323.513 139.907 323.513 139.985L323.571 149.667C323.571 149.803 323.532 149.909 323.455 149.987C323.377 150.064 323.271 150.103 323.135 150.103H318.541C318.405 150.103 318.299 150.064 318.221 149.987C318.144 149.909 318.105 149.803 318.105 149.667V130.186C318.105 130.051 318.144 129.944 318.221 129.867C318.299 129.789 318.405 129.75 318.541 129.75H322.931C323.164 129.75 323.338 129.847 323.455 130.041L329.357 139.927C329.396 139.985 329.435 140.014 329.473 140.014C329.512 139.995 329.531 139.946 329.531 139.869L329.502 130.186ZM345.005 150.336C343.416 150.336 342.011 150.016 340.789 149.376C339.588 148.736 338.648 147.835 337.969 146.672C337.31 145.509 336.981 144.172 336.981 142.66V137.165C336.981 135.653 337.31 134.325 337.969 133.181C338.648 132.018 339.588 131.117 340.789 130.477C342.011 129.838 343.416 129.518 345.005 129.518C346.556 129.518 347.942 129.828 349.163 130.448C350.384 131.049 351.324 131.873 351.983 132.92C352.662 133.966 353.001 135.11 353.001 136.35V136.38C353.001 136.515 352.962 136.622 352.885 136.699C352.807 136.777 352.701 136.816 352.565 136.816H348C347.709 136.816 347.564 136.728 347.564 136.554C347.564 135.914 347.331 135.362 346.866 134.897C346.42 134.431 345.8 134.199 345.005 134.199C344.23 134.199 343.61 134.461 343.145 134.984C342.679 135.488 342.447 136.166 342.447 137.019V142.834C342.447 143.668 342.708 144.346 343.232 144.869C343.775 145.393 344.443 145.655 345.238 145.655C345.955 145.655 346.537 145.461 346.982 145.073C347.448 144.666 347.68 144.114 347.68 143.416V143.038C347.68 142.941 347.632 142.892 347.535 142.892H344.976C344.841 142.892 344.734 142.854 344.656 142.776C344.579 142.699 344.54 142.592 344.54 142.456V138.967C344.54 138.832 344.579 138.725 344.656 138.647C344.734 138.57 344.841 138.531 344.976 138.531H352.565C352.701 138.531 352.807 138.57 352.885 138.647C352.962 138.725 353.001 138.832 353.001 138.967V142.951C353.001 144.385 352.662 145.664 351.983 146.788C351.324 147.913 350.384 148.785 349.163 149.405C347.961 150.025 346.575 150.336 345.005 150.336Z" fill="white"/>
<path d="M238.965 199.4C235.765 199.4 232.937 198.776 230.479 197.527C228.06 196.279 226.168 194.523 224.802 192.26C223.475 189.958 222.812 187.305 222.812 184.301V172.479C222.812 169.514 223.475 166.9 224.802 164.637C226.168 162.374 228.06 160.619 230.479 159.37C232.937 158.122 235.765 157.498 238.965 157.498C242.164 157.498 244.973 158.083 247.392 159.253C249.85 160.424 251.742 162.082 253.069 164.228C254.434 166.335 255.117 168.792 255.117 171.602C255.117 171.953 254.824 172.167 254.239 172.245L244.992 172.831H244.817C244.349 172.831 244.115 172.616 244.115 172.187C244.115 170.587 243.646 169.319 242.71 168.383C241.774 167.407 240.525 166.92 238.965 166.92C237.404 166.92 236.155 167.407 235.219 168.383C234.283 169.319 233.815 170.587 233.815 172.187V184.769C233.815 186.33 234.283 187.598 235.219 188.573C236.155 189.51 237.404 189.978 238.965 189.978C240.525 189.978 241.774 189.51 242.71 188.573C243.646 187.598 244.115 186.33 244.115 184.769C244.115 184.535 244.193 184.36 244.349 184.243C244.505 184.125 244.719 184.086 244.992 184.125L254.239 184.594C254.824 184.633 255.117 184.828 255.117 185.179C255.117 187.988 254.434 190.465 253.069 192.611C251.742 194.757 249.85 196.435 247.392 197.644C244.973 198.815 242.164 199.4 238.965 199.4ZM288.672 166.51C288.672 166.783 288.594 166.998 288.438 167.154C288.282 167.31 288.068 167.388 287.795 167.388H270.296C270.101 167.388 270.004 167.485 270.004 167.681V173.182C270.004 173.377 270.101 173.474 270.296 173.474H281.123C281.396 173.474 281.611 173.552 281.767 173.708C281.923 173.864 282.001 174.079 282.001 174.352V181.96C282.001 182.233 281.923 182.448 281.767 182.604C281.611 182.76 281.396 182.838 281.123 182.838H270.296C270.101 182.838 270.004 182.936 270.004 183.131V189.217C270.004 189.412 270.101 189.51 270.296 189.51H287.795C288.068 189.51 288.282 189.588 288.438 189.744C288.594 189.9 288.672 190.114 288.672 190.387V198.054C288.672 198.327 288.594 198.542 288.438 198.698C288.282 198.854 288.068 198.932 287.795 198.932H259.879C259.606 198.932 259.391 198.854 259.235 198.698C259.079 198.542 259.001 198.327 259.001 198.054V158.844C259.001 158.57 259.079 158.356 259.235 158.2C259.391 158.044 259.606 157.966 259.879 157.966H287.795C288.068 157.966 288.282 158.044 288.438 158.2C288.594 158.356 288.672 158.57 288.672 158.844V166.51ZM315.319 158.844C315.319 158.57 315.397 158.356 315.553 158.2C315.709 158.044 315.923 157.966 316.196 157.966H325.443C325.716 157.966 325.931 158.044 326.087 158.2C326.243 158.356 326.321 158.57 326.321 158.844V198.054C326.321 198.327 326.243 198.542 326.087 198.698C325.931 198.854 325.716 198.932 325.443 198.932H316.606C316.138 198.932 315.787 198.737 315.553 198.347L303.614 178.449C303.536 178.332 303.458 178.293 303.38 178.332C303.302 178.332 303.263 178.41 303.263 178.566L303.38 198.054C303.38 198.327 303.302 198.542 303.146 198.698C302.99 198.854 302.775 198.932 302.502 198.932H293.255C292.982 198.932 292.768 198.854 292.612 198.698C292.456 198.542 292.378 198.327 292.378 198.054V158.844C292.378 158.57 292.456 158.356 292.612 158.2C292.768 158.044 292.982 157.966 293.255 157.966H302.092C302.561 157.966 302.912 158.161 303.146 158.551L315.026 178.449C315.104 178.566 315.182 178.624 315.26 178.624C315.338 178.585 315.377 178.488 315.377 178.332L315.319 158.844ZM361.505 157.966C361.778 157.966 361.993 158.044 362.149 158.2C362.305 158.356 362.383 158.57 362.383 158.844V166.569C362.383 166.842 362.305 167.056 362.149 167.212C361.993 167.368 361.778 167.446 361.505 167.446H351.673C351.478 167.446 351.381 167.544 351.381 167.739V198.054C351.381 198.327 351.303 198.542 351.147 198.698C350.99 198.854 350.776 198.932 350.503 198.932H341.256C340.983 198.932 340.768 198.854 340.612 198.698C340.456 198.542 340.378 198.327 340.378 198.054V167.739C340.378 167.544 340.281 167.446 340.086 167.446H330.546C330.273 167.446 330.059 167.368 329.903 167.212C329.747 167.056 329.669 166.842 329.669 166.569V158.844C329.669 158.57 329.747 158.356 329.903 158.2C330.059 158.044 330.273 157.966 330.546 157.966H361.505ZM387.239 198.932C386.732 198.932 386.4 198.717 386.244 198.288L379.807 183.423C379.729 183.267 379.612 183.189 379.456 183.189H376.998C376.803 183.189 376.705 183.287 376.705 183.482V198.054C376.705 198.327 376.627 198.542 376.471 198.698C376.315 198.854 376.1 198.932 375.827 198.932H366.581C366.307 198.932 366.093 198.854 365.937 198.698C365.781 198.542 365.703 198.327 365.703 198.054V158.844C365.703 158.57 365.781 158.356 365.937 158.2C366.093 158.044 366.307 157.966 366.581 157.966H384.313C386.966 157.966 389.287 158.512 391.277 159.604C393.306 160.697 394.867 162.238 395.959 164.228C397.091 166.178 397.656 168.441 397.656 171.016C397.656 173.591 397.012 175.854 395.725 177.805C394.477 179.717 392.74 181.121 390.516 182.019C390.321 182.097 390.263 182.233 390.341 182.428L397.773 197.878C397.851 198.112 397.89 198.249 397.89 198.288C397.89 198.483 397.812 198.639 397.656 198.756C397.5 198.873 397.305 198.932 397.071 198.932H387.239ZM376.998 167.388C376.803 167.388 376.705 167.485 376.705 167.681V174.528C376.705 174.723 376.803 174.82 376.998 174.82H382.499C383.747 174.82 384.762 174.489 385.542 173.825C386.322 173.123 386.712 172.226 386.712 171.133C386.712 170.002 386.322 169.105 385.542 168.441C384.762 167.739 383.747 167.388 382.499 167.388H376.998ZM429.097 198.932C428.551 198.932 428.219 198.678 428.102 198.171L426.814 193.606C426.736 193.45 426.639 193.372 426.522 193.372H414.115C413.998 193.372 413.9 193.45 413.822 193.606L412.535 198.171C412.418 198.678 412.086 198.932 411.54 198.932H401.532C400.83 198.932 400.577 198.6 400.772 197.937L413.12 158.668C413.276 158.2 413.608 157.966 414.115 157.966H426.522C427.029 157.966 427.361 158.2 427.517 158.668L439.865 197.937C439.904 198.015 439.923 198.132 439.923 198.288C439.923 198.717 439.65 198.932 439.104 198.932H429.097ZM416.397 184.594C416.358 184.828 416.436 184.945 416.631 184.945H423.947C424.181 184.945 424.259 184.828 424.181 184.594L420.435 171.485C420.396 171.367 420.338 171.309 420.26 171.309C420.182 171.309 420.123 171.367 420.084 171.485L416.397 184.594ZM444.363 198.932C444.09 198.932 443.876 198.854 443.72 198.698C443.564 198.542 443.486 198.327 443.486 198.054V158.844C443.486 158.57 443.564 158.356 443.72 158.2C443.876 158.044 444.09 157.966 444.363 157.966H453.61C453.883 157.966 454.098 158.044 454.254 158.2C454.41 158.356 454.488 158.57 454.488 158.844V189.217C454.488 189.412 454.585 189.51 454.781 189.51H472.864C473.137 189.51 473.352 189.588 473.508 189.744C473.664 189.9 473.742 190.114 473.742 190.387V198.054C473.742 198.327 473.664 198.542 473.508 198.698C473.352 198.854 473.137 198.932 472.864 198.932H444.363Z" fill="white"/>
<path d="M324.356 231.113C324.085 231.113 323.92 230.987 323.862 230.735L323.222 228.467C323.183 228.39 323.135 228.351 323.077 228.351H316.913C316.855 228.351 316.806 228.39 316.767 228.467L316.128 230.735C316.07 230.987 315.905 231.113 315.633 231.113H310.662C310.313 231.113 310.187 230.948 310.284 230.619L316.418 211.109C316.496 210.877 316.661 210.76 316.913 210.76H323.077C323.329 210.76 323.493 210.877 323.571 211.109L329.706 230.619C329.725 230.657 329.735 230.716 329.735 230.793C329.735 231.006 329.599 231.113 329.328 231.113H324.356ZM318.047 223.989C318.027 224.106 318.066 224.164 318.163 224.164H321.797C321.914 224.164 321.952 224.106 321.914 223.989L320.053 217.477C320.034 217.418 320.004 217.389 319.966 217.389C319.927 217.389 319.898 217.418 319.878 217.477L318.047 223.989ZM342.204 231.113C341.952 231.113 341.788 231.006 341.71 230.793L338.512 223.408C338.473 223.33 338.415 223.292 338.337 223.292H337.116C337.019 223.292 336.971 223.34 336.971 223.437V230.677C336.971 230.812 336.932 230.919 336.855 230.997C336.777 231.074 336.67 231.113 336.535 231.113H331.941C331.805 231.113 331.699 231.074 331.621 230.997C331.543 230.919 331.505 230.812 331.505 230.677V211.196C331.505 211.061 331.543 210.954 331.621 210.877C331.699 210.799 331.805 210.76 331.941 210.76H340.751C342.069 210.76 343.222 211.032 344.211 211.574C345.219 212.117 345.994 212.883 346.537 213.871C347.099 214.84 347.38 215.965 347.38 217.244C347.38 218.523 347.06 219.648 346.42 220.617C345.8 221.567 344.937 222.264 343.833 222.71C343.736 222.749 343.707 222.817 343.745 222.914L347.438 230.59C347.477 230.706 347.496 230.774 347.496 230.793C347.496 230.89 347.457 230.968 347.38 231.026C347.302 231.084 347.205 231.113 347.089 231.113H342.204ZM337.116 215.441C337.019 215.441 336.971 215.49 336.971 215.587V218.989C336.971 219.085 337.019 219.134 337.116 219.134H339.849C340.47 219.134 340.974 218.969 341.361 218.64C341.749 218.291 341.943 217.845 341.943 217.302C341.943 216.74 341.749 216.294 341.361 215.965C340.974 215.616 340.47 215.441 339.849 215.441H337.116ZM363 231.113C362.729 231.113 362.564 230.987 362.506 230.735L361.866 228.467C361.827 228.39 361.779 228.351 361.721 228.351H355.557C355.499 228.351 355.45 228.39 355.411 228.467L354.772 230.735C354.714 230.987 354.549 231.113 354.277 231.113H349.306C348.957 231.113 348.831 230.948 348.928 230.619L355.062 211.109C355.14 210.877 355.305 210.76 355.557 210.76H361.721C361.973 210.76 362.137 210.877 362.215 211.109L368.35 230.619C368.369 230.657 368.379 230.716 368.379 230.793C368.379 231.006 368.243 231.113 367.972 231.113H363ZM356.691 223.989C356.671 224.106 356.71 224.164 356.807 224.164H360.441C360.558 224.164 360.596 224.106 360.558 223.989L358.697 217.477C358.677 217.418 358.648 217.389 358.61 217.389C358.571 217.389 358.542 217.418 358.522 217.477L356.691 223.989ZM377.431 231.346C375.861 231.346 374.465 231.045 373.244 230.444C372.042 229.843 371.112 228.99 370.453 227.886C369.794 226.781 369.464 225.501 369.464 224.048V211.196C369.464 211.061 369.503 210.954 369.581 210.877C369.658 210.799 369.765 210.76 369.901 210.76H374.494C374.63 210.76 374.737 210.799 374.814 210.877C374.892 210.954 374.931 211.061 374.931 211.196V224.048C374.931 224.842 375.154 225.482 375.599 225.967C376.065 226.432 376.675 226.664 377.431 226.664C378.168 226.664 378.759 226.422 379.205 225.938C379.67 225.453 379.902 224.823 379.902 224.048V211.196C379.902 211.061 379.941 210.954 380.019 210.877C380.096 210.799 380.203 210.76 380.339 210.76H384.933C385.068 210.76 385.175 210.799 385.252 210.877C385.33 210.954 385.369 211.061 385.369 211.196V224.048C385.369 225.501 385.039 226.781 384.38 227.886C383.721 228.99 382.791 229.843 381.589 230.444C380.387 231.045 379.001 231.346 377.431 231.346ZM395.289 231.346C393.699 231.346 392.294 231.035 391.073 230.415C389.871 229.795 388.931 228.923 388.253 227.798C387.593 226.655 387.264 225.337 387.264 223.844V217.971C387.264 216.498 387.593 215.199 388.253 214.075C388.931 212.951 389.871 212.078 391.073 211.458C392.294 210.838 393.699 210.528 395.289 210.528C396.878 210.528 398.274 210.818 399.476 211.4C400.697 211.981 401.637 212.805 402.296 213.871C402.974 214.918 403.314 216.139 403.314 217.535C403.314 217.709 403.168 217.816 402.877 217.855L398.283 218.145H398.196C397.964 218.145 397.847 218.039 397.847 217.826C397.847 217.031 397.615 216.401 397.15 215.936C396.684 215.451 396.064 215.209 395.289 215.209C394.513 215.209 393.893 215.451 393.428 215.936C392.963 216.401 392.73 217.031 392.73 217.826V224.077C392.73 224.852 392.963 225.482 393.428 225.967C393.893 226.432 394.513 226.664 395.289 226.664C396.064 226.664 396.684 226.432 397.15 225.967C397.615 225.482 397.847 224.852 397.847 224.077C397.847 223.96 397.886 223.873 397.964 223.815C398.041 223.757 398.148 223.737 398.283 223.757L402.877 223.989C403.168 224.009 403.314 224.106 403.314 224.28C403.314 225.676 402.974 226.907 402.296 227.973C401.637 229.039 400.697 229.872 399.476 230.473C398.274 231.055 396.878 231.346 395.289 231.346ZM418.084 231.113C417.813 231.113 417.648 230.987 417.59 230.735L416.95 228.467C416.911 228.39 416.863 228.351 416.805 228.351H410.641C410.583 228.351 410.534 228.39 410.495 228.467L409.856 230.735C409.798 230.987 409.633 231.113 409.361 231.113H404.39C404.041 231.113 403.915 230.948 404.012 230.619L410.146 211.109C410.224 210.877 410.389 210.76 410.641 210.76H416.805C417.057 210.76 417.221 210.877 417.299 211.109L423.434 230.619C423.453 230.657 423.463 230.716 423.463 230.793C423.463 231.006 423.327 231.113 423.056 231.113H418.084ZM411.775 223.989C411.755 224.106 411.794 224.164 411.891 224.164H415.525C415.642 224.164 415.68 224.106 415.642 223.989L413.781 217.477C413.761 217.418 413.732 217.389 413.694 217.389C413.655 217.389 413.626 217.418 413.606 217.477L411.775 223.989ZM411.658 209.045C411.503 209.045 411.387 208.996 411.309 208.899C411.251 208.783 411.261 208.657 411.339 208.521L412.763 205.847C412.86 205.633 413.035 205.527 413.287 205.527H417.212C417.444 205.527 417.561 205.614 417.561 205.788C417.561 205.866 417.532 205.953 417.473 206.05L415.438 208.783C415.322 208.958 415.147 209.045 414.915 209.045H411.658ZM435.932 231.113C435.68 231.113 435.516 231.006 435.438 230.793L432.24 223.408C432.201 223.33 432.143 223.292 432.065 223.292H430.844C430.747 223.292 430.699 223.34 430.699 223.437V230.677C430.699 230.812 430.66 230.919 430.582 230.997C430.505 231.074 430.398 231.113 430.263 231.113H425.669C425.533 231.113 425.426 231.074 425.349 230.997C425.271 230.919 425.233 230.812 425.233 230.677V211.196C425.233 211.061 425.271 210.954 425.349 210.877C425.426 210.799 425.533 210.76 425.669 210.76H434.479C435.797 210.76 436.95 211.032 437.939 211.574C438.946 212.117 439.722 212.883 440.265 213.871C440.827 214.84 441.108 215.965 441.108 217.244C441.108 218.523 440.788 219.648 440.148 220.617C439.528 221.567 438.665 222.264 437.561 222.71C437.464 222.749 437.435 222.817 437.473 222.914L441.166 230.59C441.205 230.706 441.224 230.774 441.224 230.793C441.224 230.89 441.185 230.968 441.108 231.026C441.03 231.084 440.933 231.113 440.817 231.113H435.932ZM430.844 215.441C430.747 215.441 430.699 215.49 430.699 215.587V218.989C430.699 219.085 430.747 219.134 430.844 219.134H433.577C434.197 219.134 434.701 218.969 435.089 218.64C435.477 218.291 435.671 217.845 435.671 217.302C435.671 216.74 435.477 216.294 435.089 215.965C434.701 215.616 434.197 215.441 433.577 215.441H430.844ZM443.557 231.113C443.421 231.113 443.315 231.074 443.237 230.997C443.159 230.919 443.121 230.812 443.121 230.677V211.196C443.121 211.061 443.159 210.954 443.237 210.877C443.315 210.799 443.421 210.76 443.557 210.76H448.151C448.286 210.76 448.393 210.799 448.471 210.877C448.548 210.954 448.587 211.061 448.587 211.196V230.677C448.587 230.812 448.548 230.919 448.471 230.997C448.393 231.074 448.286 231.113 448.151 231.113H443.557ZM464.451 231.113C464.18 231.113 464.015 230.987 463.957 230.735L463.317 228.467C463.278 228.39 463.23 228.351 463.172 228.351H457.008C456.95 228.351 456.901 228.39 456.862 228.467L456.223 230.735C456.165 230.987 456 231.113 455.728 231.113H450.757C450.408 231.113 450.282 230.948 450.379 230.619L456.514 211.109C456.591 210.877 456.756 210.76 457.008 210.76H463.172C463.424 210.76 463.588 210.877 463.666 211.109L469.801 230.619C469.82 230.657 469.83 230.716 469.83 230.793C469.83 231.006 469.694 231.113 469.423 231.113H464.451ZM458.142 223.989C458.122 224.106 458.161 224.164 458.258 224.164H461.892C462.009 224.164 462.047 224.106 462.009 223.989L460.148 217.477C460.129 217.418 460.099 217.389 460.061 217.389C460.022 217.389 459.993 217.418 459.973 217.477L458.142 223.989Z" fill="white"/>
<path d="M7.59404 132.69C109.705 127.778 162.874 143.763 195.699 191.287C157.135 212.465 132.527 218.93 78.6677 200.356C41.9457 187.693 29.3499 166.028 7.59404 132.69Z" fill="#6C1CD1"/>
<path d="M69.9129 18.4322C147.351 75.0812 193.019 123.254 196.309 189.658C158.165 181.633 123.131 175.111 98.0223 115.656C82.024 77.7732 79.5003 65.4076 69.9129 18.4322Z" fill="#F75111" fill-opacity="0.8"/>
<path d="M70.094 145.109C137.899 145.43 173.583 157.888 196.382 190.542C171.169 203.23 154.937 206.653 118.741 192.454C94.0614 182.773 85.2427 167.97 70.094 145.109Z" fill="#372B2B"/>
<path d="M9.84919 188.883C100.398 157.681 153.489 157.756 198.334 190.95C170.329 219.743 150.2 231.911 95.6565 229.739C58.4679 228.258 40.161 212.502 9.84919 188.883Z" fill="#E41D7F" fill-opacity="0.85"/>
<path d="M75.0748 243.214C124.03 198.906 158.389 183.879 197.615 190.94C188.369 216.056 179.098 229.025 143.153 243.214C118.645 252.888 101.953 248.691 75.0748 243.214Z" fill="#230A44" fill-opacity="0.85"/>
</svg>
