<svg width="115" height="110" viewBox="0 0 115 110" fill="none" xmlns="http://www.w3.org/2000/svg">
<path d="M98.4146 5.94726C97.3919 4.24337 95.9495 2.83301 94.2265 1.85224C92.5035 0.871463 90.558 0.353359 88.5777 0.3479H26.2049C22.199 0.3479 18.4284 2.49307 16.368 5.94726L0.820698 31.9776C0.282686 32.8738 -0.00111893 33.9008 3.31537e-06 34.9474C0.0229237 40.5134 2.06319 45.8804 5.73913 50.0444V98.3799C5.73913 104.74 10.8871 109.913 17.2174 109.913H97.5652C103.895 109.913 109.043 104.74 109.043 98.3799V50.0444C112.719 45.8804 114.76 40.5134 114.783 34.9474C114.784 33.9008 114.5 32.8738 113.962 31.9776L98.4146 5.94726ZM103.213 36.3949C102.858 39.1791 101.507 41.7384 99.4116 43.5946C97.3161 45.4507 94.6196 46.4767 91.8261 46.4806C85.4958 46.4806 80.3478 41.308 80.3478 34.9474C80.3478 34.5553 80.2044 34.2093 80.124 33.8403L80.2388 33.8172L75.8713 11.8811H88.5777L103.213 36.3949ZM50.6134 11.8811H64.1635L68.8294 35.3223C68.6285 41.5041 63.5896 46.4806 57.3913 46.4806C51.193 46.4806 46.1541 41.5041 45.9532 35.3223L50.6134 11.8811ZM26.2049 11.8811H38.9113L34.5496 33.8172L34.6644 33.8403C34.5783 34.2093 34.4348 34.5553 34.4348 34.9474C34.4348 41.308 29.2868 46.4806 22.9565 46.4806C20.163 46.4767 17.4665 45.4507 15.371 43.5946C13.2755 41.7384 11.9243 39.1791 11.5701 36.3949L26.2049 11.8811ZM45.913 98.3799V81.0802H68.8696V98.3799H45.913ZM80.3478 98.3799V81.0802C80.3478 74.7196 75.1998 69.547 68.8696 69.547H45.913C39.5828 69.547 34.4348 74.7196 34.4348 81.0802V98.3799H17.2174V57.1949C19.0597 57.6736 20.9593 58.0138 22.9565 58.0138C26.2153 58.0155 29.4369 57.3184 32.406 55.9689C35.3752 54.6194 38.0235 52.6487 40.1739 50.1885C44.3807 54.9863 50.5445 58.0138 57.3913 58.0138C64.2381 58.0138 70.4019 54.9863 74.6087 50.1885C76.7592 52.6487 79.4074 54.6194 82.3766 55.9689C85.3457 57.3184 88.5673 58.0155 91.8261 58.0138C93.8233 58.0138 95.723 57.6736 97.5652 57.1949V98.3799H80.3478Z" fill="white"/>
</svg>
