<svg width="123" height="79" viewBox="0 0 123 79" fill="none" xmlns="http://www.w3.org/2000/svg">
<path fill-rule="evenodd" clip-rule="evenodd" d="M0.260921 39.8261C0.260921 40.9791 0.72224 42.0848 1.54338 42.9C2.36454 43.7153 3.47825 44.1733 4.63953 44.1733L107.913 44.1733L80.3543 71.526C79.9472 71.9302 79.6243 72.41 79.404 72.9381C79.1836 73.4662 79.0702 74.0322 79.0702 74.6038C79.0702 75.1754 79.1836 75.7414 79.404 76.2695C79.6243 76.7976 79.9472 77.2775 80.3543 77.6817C80.7614 78.0858 81.2447 78.4065 81.7766 78.6252C82.3085 78.844 82.8786 78.9565 83.4544 78.9565C84.0301 78.9565 84.6002 78.844 85.1321 78.6252C85.664 78.4065 86.1473 78.0858 86.5544 77.6817L121.583 42.9039C121.991 42.5001 122.315 42.0204 122.535 41.4923C122.756 40.9641 122.87 40.3979 122.87 39.8261C122.87 39.2543 122.756 38.6881 122.535 38.16C122.315 37.6318 121.991 37.1521 121.583 36.7483L86.5544 1.97055C86.1473 1.56637 85.664 1.24575 85.1321 1.02701C84.6002 0.808262 84.0301 0.695683 83.4544 0.695683C82.8787 0.695683 82.3086 0.808262 81.7766 1.02701C81.2447 1.24575 80.7614 1.56637 80.3543 1.97055C79.9472 2.37474 79.6243 2.85458 79.404 3.38268C79.1836 3.91077 79.0703 4.47678 79.0703 5.04839C79.0703 5.61999 79.1836 6.18601 79.404 6.7141C79.6243 7.2422 79.9472 7.72203 80.3543 8.12622L107.913 35.4789L4.63953 35.4789C3.47825 35.4789 2.36454 35.9369 1.54338 36.7522C0.72224 37.5674 0.260921 38.6731 0.260921 39.8261Z" fill="white"/>
</svg>
