<svg width="157" height="158" viewBox="0 0 157 158" fill="none" xmlns="http://www.w3.org/2000/svg">
<path d="M156.85 50.9116C157.202 63.4128 152.772 75.5774 144.463 84.9246C136.154 94.2718 124.593 100.098 112.137 101.214C112.045 97.3866 111.289 93.6042 109.901 90.0358C119.624 89.0359 128.64 84.4977 135.235 77.2842C141.831 70.0706 145.545 60.6849 145.672 50.9116C145.635 40.8299 141.716 31.1499 134.728 23.8827C127.74 16.6154 118.221 12.3198 108.148 11.8881C98.0757 11.4564 88.2241 14.9219 80.64 21.5646C73.056 28.2073 68.3227 37.5165 67.4235 47.5581C63.8243 46.2791 60.0594 45.5261 56.2452 45.3224C57.9047 33.0888 63.89 21.8538 73.1173 13.6518C82.3446 5.44974 94.2038 0.822915 106.548 0.609095C113.161 0.580992 119.715 1.86292 125.831 4.38091C131.946 6.89889 137.503 10.6031 142.18 15.2797C146.856 19.9563 150.56 25.5128 153.078 31.6285C155.596 37.7441 156.878 44.2979 156.85 50.9116ZM50.656 56.5008C37.3135 56.5008 24.5174 61.8011 15.0828 71.2357C5.6482 80.6703 0.3479 93.4663 0.3479 106.809C0.3479 120.151 5.6482 132.947 15.0828 142.382C24.5174 151.817 37.3135 157.117 50.656 157.117C63.9971 157.117 76.7917 151.817 86.2253 142.384C95.6588 132.95 100.959 120.156 100.959 106.814C100.959 93.4734 95.6588 80.6788 86.2253 71.2452C76.7917 61.8117 63.9971 56.512 50.656 56.512V56.5008Z" fill="white"/>
</svg>
