<svg width="61" height="61" viewBox="0 0 61 61" fill="none" xmlns="http://www.w3.org/2000/svg">
<path d="M60.347 19.3967C60.4825 24.2172 58.7743 28.9078 55.5705 32.512C52.3667 36.1163 47.9087 38.3628 43.1056 38.7933C43.0702 37.3174 42.7785 35.8589 42.2435 34.4829C45.9926 34.0974 49.4692 32.3474 52.0124 29.5659C54.5555 26.7844 55.9877 23.1653 56.0366 19.3967C56.0224 15.5092 54.5111 11.7766 51.8166 8.97441C49.1221 6.17219 45.4515 4.51579 41.5676 4.34933C37.6836 4.18288 33.8849 5.51917 30.9605 8.08057C28.0361 10.642 26.2109 14.2316 25.8642 18.1036C24.4764 17.6104 23.0246 17.3201 21.5539 17.2415C22.1938 12.5243 24.5017 8.19209 28.0597 5.0294C31.6178 1.86671 36.1907 0.0826231 40.9504 0.000174382C43.5006 -0.010662 46.0278 0.483647 48.3859 1.45458C50.7441 2.42551 52.8867 3.85383 54.69 5.65713C56.4933 7.46043 57.9216 9.60299 58.8925 11.9612C59.8635 14.3194 60.3578 16.8465 60.347 19.3967ZM19.3987 21.5519C14.2538 21.5519 9.31971 23.5957 5.68175 27.2336C2.04378 30.8716 0 35.8057 0 40.9506C0 46.0954 2.04378 51.0296 5.68175 54.6675C9.31971 58.3055 14.2538 60.3493 19.3987 60.3493C24.543 60.3493 29.4766 58.3057 33.1141 54.6682C36.7517 51.0306 38.7952 46.097 38.7952 40.9527C38.7952 35.8085 36.7517 30.8749 33.1141 27.2373C29.4766 23.5998 24.543 21.5562 19.3987 21.5562V21.5519Z" fill="white"/>
</svg>
