<svg width="163" height="164" viewBox="0 0 163 164" fill="none" xmlns="http://www.w3.org/2000/svg">
<circle cx="81.4843" cy="81.8635" r="81.2983" fill="white"/>
<path d="M116.625 73.7479H95.8492C95.4921 73.7479 95.1999 74.0401 95.1999 74.3972V78.2927C95.1999 78.6498 95.4921 78.942 95.8492 78.942H116.625C116.982 78.942 117.275 78.6498 117.275 78.2927V74.3972C117.275 74.0401 116.982 73.7479 116.625 73.7479ZM105.75 84.7853H95.8492C95.4921 84.7853 95.1999 85.0775 95.1999 85.4346V89.3301C95.1999 89.6872 95.4921 89.9794 95.8492 89.9794H105.75C106.107 89.9794 106.4 89.6872 106.4 89.3301V85.4346C106.4 85.0775 106.107 84.7853 105.75 84.7853ZM78.6682 66.4844H75.1541C74.6509 66.4844 74.2451 66.8902 74.2451 67.3933V87.5203C74.2451 87.8125 74.3831 88.0803 74.6184 88.2507L86.7027 97.0644C87.1085 97.3565 87.6766 97.2754 87.9688 96.8696L90.0545 94.021V94.0129C90.3467 93.6071 90.2574 93.039 89.8516 92.7468L79.569 85.3128V67.3933C79.5771 66.8902 79.1632 66.4844 78.6682 66.4844Z" fill="black"/>
<path d="M105.247 95.003H100.556C100.102 95.003 99.6714 95.2383 99.428 95.6279C98.3973 97.2592 97.1961 98.7687 95.8165 100.148C93.4386 102.526 90.6711 104.393 87.5952 105.691C84.4058 107.039 81.0215 107.72 77.5318 107.72C74.0339 107.72 70.6496 107.039 67.4683 105.691C64.3924 104.393 61.625 102.526 59.247 100.148C56.8691 97.7704 55.0025 95.003 53.704 91.9271C52.3568 88.7458 51.6751 85.3615 51.6751 81.8636C51.6751 78.3658 52.3568 74.9896 53.704 71.8002C55.0025 68.7243 56.8691 65.9568 59.247 63.5789C61.625 61.201 64.3924 59.3344 67.4683 58.0359C70.6496 56.6887 74.042 56.007 77.5318 56.007C81.0296 56.007 84.4139 56.6887 87.5952 58.0359C90.6711 59.3344 93.4386 61.201 95.8165 63.5789C97.1961 64.9586 98.3973 66.4681 99.428 68.0994C99.6714 68.4889 100.102 68.7243 100.556 68.7243H105.247C105.807 68.7243 106.164 68.14 105.912 67.6449C100.621 57.1188 89.892 50.2773 77.9132 50.1393C60.3751 49.9202 45.8074 64.2769 45.775 81.7987C45.7425 99.353 59.9693 113.596 77.5236 113.596C89.6566 113.596 100.564 106.73 105.912 96.0824C106.164 95.5873 105.799 95.003 105.247 95.003Z" fill="black"/>
</svg>
