<svg width="50" height="50" viewBox="0 0 50 50" fill="none" xmlns="http://www.w3.org/2000/svg">
<path fill-rule="evenodd" clip-rule="evenodd" d="M6.25 3.125C5.4212 3.125 4.62634 3.45424 4.04029 4.04029C3.45424 4.62635 3.125 5.4212 3.125 6.25L3.125 43.75C3.125 44.5788 3.45424 45.3737 4.04029 45.9597C4.62634 46.5458 5.4212 46.875 6.25 46.875H43.75C44.5788 46.875 45.3737 46.5458 45.9597 45.9597C46.5458 45.3737 46.875 44.5788 46.875 43.75V6.25C46.875 5.4212 46.5458 4.62634 45.9597 4.04029C45.3737 3.45424 44.5788 3.125 43.75 3.125L6.25 3.125ZM6.25 50C4.5924 50 3.00269 49.3415 1.83058 48.1694C0.658482 46.9973 1.71163e-06 45.4076 1.63918e-06 43.75L0 6.25C-7.24561e-08 4.5924 0.65848 3.00269 1.83058 1.83059C3.00268 0.658483 4.5924 1.71163e-06 6.25 1.63918e-06L43.75 0C45.4076 -7.24561e-08 46.9973 0.658481 48.1694 1.83058C49.3415 3.00269 50 4.5924 50 6.25V43.75C50 45.4076 49.3415 46.9973 48.1694 48.1694C46.9973 49.3415 45.4076 50 43.75 50H6.25ZM14.0625 23.4375C13.6481 23.4375 13.2507 23.6021 12.9576 23.8951C12.6646 24.1882 12.5 24.5856 12.5 25C12.5 25.4144 12.6646 25.8118 12.9576 26.1049C13.2507 26.3979 13.6481 26.5625 14.0625 26.5625L32.1656 26.5625L25.4563 33.2688C25.1629 33.5621 24.998 33.9601 24.998 34.375C24.998 34.7899 25.1629 35.1879 25.4563 35.4813C25.7496 35.7747 26.1476 35.9395 26.5625 35.9395C26.9774 35.9395 27.3754 35.7747 27.6688 35.4813L37.0438 26.1063C37.1893 25.9611 37.3047 25.7887 37.3835 25.5989C37.4623 25.409 37.5028 25.2055 37.5028 25C37.5028 24.7945 37.4623 24.591 37.3835 24.4011C37.3047 24.2113 37.1893 24.0389 37.0438 23.8938L27.6688 14.5188C27.3754 14.2254 26.9774 14.0605 26.5625 14.0605C26.1476 14.0605 25.7496 14.2254 25.4563 14.5188C25.1629 14.8121 24.998 15.2101 24.998 15.625C24.998 16.0399 25.1629 16.4379 25.4563 16.7313L32.1656 23.4375L14.0625 23.4375Z" fill="white"/>
</svg>
