<svg width="60" height="60" viewBox="0 0 60 60" fill="none" xmlns="http://www.w3.org/2000/svg">
<path d="M57.2564 25.9045C55.2618 24.5999 54.5133 21.8036 55.5861 19.6732C56.5252 17.8141 56.6246 16.2177 55.8797 14.9285C55.1347 13.6393 53.703 12.927 51.6225 12.8085C49.2416 12.6745 47.1954 10.6283 47.0614 8.24566C46.943 6.16687 46.2306 4.7352 44.9414 3.99023C43.6522 3.25043 42.0558 3.34652 40.1967 4.28379C38.0664 5.34809 35.2683 4.60828 33.9637 2.61352C31.6807 -0.871172 28.3195 -0.871172 26.0365 2.61352C24.7302 4.60652 21.9355 5.35324 19.8035 4.28379C17.9427 3.34652 16.3463 3.25043 15.0588 3.99023C13.7696 4.7352 13.0573 6.16687 12.9388 8.24742C12.8048 10.6283 10.7586 12.6745 8.37598 12.8085C6.29719 12.927 4.86551 13.6393 4.12055 14.9285C3.37559 16.2177 3.47508 17.8141 4.4141 19.6732C5.48695 21.8036 4.73859 24.5999 2.74207 25.9062C1.00125 27.0496 0 28.3816 0 29.8699C0 31.3582 1.00125 32.692 2.74359 33.8336C4.73824 35.1398 5.48672 37.9363 4.41387 40.0665C3.47484 41.9256 3.37535 43.522 4.12031 44.8112C4.86527 46.1004 6.29695 46.8128 8.3775 46.9313C10.7584 47.0652 12.8046 49.1114 12.9386 51.4941C13.057 53.5729 13.7694 55.0045 15.0586 55.7495C16.3495 56.4928 17.9425 56.3932 19.8033 55.4559C21.9336 54.3847 24.7282 55.1298 26.0362 57.128C27.1795 58.8687 28.5116 59.987 29.9999 59.987C31.4882 59.987 32.8202 58.8686 33.9653 57.1262C35.2682 55.128 38.0595 54.3762 40.1966 55.4559C42.0557 56.3932 43.6573 56.4928 44.9413 55.7495C46.2305 55.0045 46.9429 53.5729 47.0613 51.4923C47.1953 49.1114 49.2415 47.0652 51.6241 46.9313C53.7029 46.8128 55.1346 46.1004 55.8796 44.8112C56.6245 43.522 56.525 41.9256 55.586 40.0665C54.5132 37.9362 55.2615 35.1398 57.2563 33.8336C58.9988 32.692 60 31.3582 60 29.8699C60 28.3816 58.9988 27.0496 57.2564 25.9045ZM22.9688 14.0496C25.8766 14.0496 28.2422 16.4152 28.2422 19.323C28.2422 22.2309 25.8766 24.5965 22.9688 24.5965C20.0609 24.5965 17.6953 22.2309 17.6953 19.323C17.6953 16.4152 20.0609 14.0496 22.9688 14.0496ZM20.859 44.9864L18.0472 42.8784L39.141 14.7534L41.9528 16.8614L20.859 44.9864ZM37.0312 45.6902C34.1234 45.6902 31.7578 43.3247 31.7578 40.4168C31.7578 37.5089 34.1234 35.1434 37.0312 35.1434C39.9391 35.1434 42.3047 37.5089 42.3047 40.4168C42.3047 43.3247 39.9391 45.6902 37.0312 45.6902Z" fill="#230A44"/>
</svg>
