<svg width="46" height="50" viewBox="0 0 46 50" fill="none" xmlns="http://www.w3.org/2000/svg">
<path d="M31.4074 27.1261L31.4075 27.1261C31.397 27.1209 31.3864 27.1169 31.3742 27.1123L31.3737 27.1121C31.3619 27.1077 31.3486 27.1027 31.3351 27.096L31.2907 27.0738L31.3309 27.0446C35.0664 24.3317 37.4965 19.9225 37.4965 14.9479C37.4965 6.70699 30.8316 0.0301369 22.6089 0.0301369C14.3862 0.0301369 7.72726 6.70697 7.72726 14.9479C7.72726 19.9225 10.1574 24.3317 13.8989 27.0446L13.9391 27.0737L13.8947 27.096C13.8812 27.1027 13.868 27.1077 13.8563 27.1121L13.8556 27.1123C13.8434 27.1169 13.8328 27.1209 13.8224 27.1261L13.8207 27.127L13.8206 27.1269C11.13 28.2645 8.71628 29.8958 6.63956 31.9785L6.63951 31.9785C4.57484 34.0395 2.93109 36.4826 1.79998 39.1716L1.79996 39.1717C0.687069 41.8049 0.0864511 44.6262 0.0302818 47.4844L0.0302787 47.4845C0.0287701 47.5448 0.0393482 47.6048 0.0613899 47.661C0.0834317 47.7171 0.116491 47.7683 0.158619 47.8115C0.200747 47.8547 0.251092 47.889 0.306688 47.9124C0.362282 47.9358 0.422004 47.9479 0.482342 47.9479H4.09275C4.33564 47.9479 4.53917 47.7499 4.54481 47.5072L4.54481 47.5071C4.66556 42.8463 6.53116 38.4811 9.8336 35.1726C13.2447 31.7494 17.785 29.8657 22.6149 29.8657C26.0381 29.8657 29.3225 30.8136 32.1542 32.5887L32.1542 32.5887C32.2224 32.6315 32.3006 32.6556 32.381 32.6586C32.4613 32.6616 32.5411 32.6433 32.6121 32.6057C32.6122 32.6057 32.6123 32.6057 32.6123 32.6056L32.6264 32.6323L31.4074 27.1261ZM31.4074 27.1261L31.4092 27.1269M31.4074 27.1261L31.4092 27.1269M31.4092 27.1269C33.6951 28.0919 35.8046 29.4304 37.6512 31.0876L31.4092 27.1269ZM29.9535 22.2985L29.9535 22.2985C27.9889 24.2631 25.3835 25.3452 22.6149 25.3452C19.8463 25.3452 17.2409 24.2631 15.2764 22.2985C14.3097 21.3344 13.5434 20.1886 13.0216 18.927C12.4997 17.6655 12.2327 16.3131 12.2358 14.9479M29.9535 22.2985L12.2659 14.9479M29.9535 22.2985C31.912 20.334 32.9941 17.7225 32.9941 14.948M29.9535 22.2985L29.9322 7.61862M12.2358 14.9479L12.2659 14.9479M12.2358 14.9479C12.2358 14.9479 12.2358 14.9479 12.2358 14.9479H12.2659M12.2358 14.9479C12.2358 12.1733 13.3178 9.56186 15.2763 7.59734C17.2348 5.63277 19.8403 4.55068 22.6149 4.55068C25.3895 4.55068 27.989 5.63279 29.9535 7.59731M12.2659 14.9479C12.2659 12.1814 13.3448 9.57752 15.2977 7.61862C17.2505 5.65972 19.8483 4.58081 22.6149 4.58081C25.3815 4.58081 27.9733 5.65972 29.9322 7.61862M29.9535 7.59731C29.9535 7.5973 29.9535 7.59729 29.9534 7.59728L29.9322 7.61862M29.9535 7.59731L29.9322 7.61862M29.9535 7.59731C30.9201 8.56142 31.6864 9.70726 32.2082 10.9688C32.7301 12.2304 32.9972 13.5828 32.9941 14.948M32.9941 14.948L32.9639 14.9479H32.9941C32.9941 14.9479 32.9941 14.948 32.9941 14.948ZM13.8488 27.0827C13.8475 27.0831 13.8463 27.0836 13.8451 27.0841C13.833 27.0886 13.821 27.0931 13.8089 27.0991C11.1147 28.2383 8.69767 29.8717 6.61822 31.9572L13.8488 27.0827ZM1.7722 39.1599C0.657818 41.7967 0.0563953 44.6217 0.000150721 47.4838C-0.00145802 47.5481 0.00982542 47.6121 0.0333365 47.672C0.0568476 47.7319 0.0921104 47.7865 0.137047 47.8325C0.181984 47.8786 0.235686 47.9152 0.294987 47.9402C0.354289 47.9652 0.417992 47.978 0.482342 47.978H4.09275C4.35193 47.978 4.56891 47.7671 4.57494 47.5079C4.69549 42.8547 6.55795 38.4969 9.85493 35.1939L1.7722 39.1599ZM39.6905 39.6602V39.6903H39.7206H44.7836C45.0322 39.6903 45.2357 39.8938 45.2357 40.1424V43.5177C45.2357 43.7663 45.0322 43.9698 44.7836 43.9698H39.7206H39.6905V43.9999V49.0629C39.6905 49.3115 39.487 49.515 39.2385 49.515H35.8631C35.6146 49.515 35.4111 49.3115 35.4111 49.0629V43.9999V43.9698H35.3809H30.3179C30.0694 43.9698 29.8659 43.7663 29.8659 43.5177V40.1424C29.8659 39.8938 30.0694 39.6903 30.3179 39.6903H35.3809H35.4111V39.6602V34.5972C35.4111 34.3486 35.6146 34.1452 35.8631 34.1452H39.2385C39.487 34.1452 39.6905 34.3486 39.6905 34.5972V39.6602Z" fill="white" stroke="white" stroke-width="0.0602739"/>
</svg>
