<svg width="57" height="57" viewBox="0 0 57 57" fill="none" xmlns="http://www.w3.org/2000/svg">
<path d="M12.2023 18.7792L10.3273 18.8488C7.73598 18.8518 5.63613 20.9476 5.63308 23.534V27.2822C5.63613 29.8686 7.73598 31.9644 10.3273 31.9675H11.0336C11.1631 33.3226 11.4153 34.6631 11.787 35.9728L13.5931 35.4586C13.171 33.9774 12.914 32.4544 12.8266 30.9169C12.8221 30.8782 12.2023 18.7792 12.2023 18.7792ZM7.51078 27.2822V23.534C7.51254 21.9821 8.77247 20.7246 10.3273 20.7229H10.4225L10.9019 30.0934H10.3273C8.77247 30.0916 7.51254 28.8341 7.51078 27.2822Z" fill="white"/>
<path d="M39.7543 44.7582L38.3277 43.5412C37.6257 44.363 36.8505 45.1196 36.0117 45.8019C34.6775 46.9206 33.1916 47.8455 31.5981 48.549C29.4086 49.4989 26.9223 49.4989 24.7328 48.549C23.1392 47.8454 21.6533 46.9206 20.3191 45.8019L18.7769 46.5201V49.6214C18.7759 51.4832 18.4749 53.3326 17.8857 55.0991C17.7226 55.5903 17.9895 56.1206 18.4817 56.2833C18.577 56.3148 18.6766 56.3308 18.7769 56.3308H37.5539C38.0724 56.3308 38.4927 55.9113 38.4927 55.3938C38.4927 55.2936 38.4767 55.1942 38.4451 55.0991C37.856 53.3326 37.5549 51.4832 37.5539 49.6214V46.9384C38.3431 46.2699 39.0788 45.541 39.7543 44.7582ZM20.0326 54.4567C20.445 52.8779 20.654 51.2531 20.6546 49.6214V48.3968C21.7004 49.1219 22.8125 49.7468 23.9758 50.2634C26.644 51.4433 29.6875 51.4433 32.3557 50.2634C33.5187 49.7469 34.6305 49.1221 35.6762 48.3974V49.6214C35.6768 51.2531 35.8858 52.8779 36.2982 54.4567H20.0326Z" fill="white"/>
<path d="M40.124 28.6878L40.6169 26.8795C37.9964 26.1696 35.2336 26.1696 32.6132 26.8795L33.1061 28.6878C35.4038 28.0656 37.8263 28.0656 40.124 28.6878Z" fill="white"/>
<path d="M23.8196 36.7195L23.1227 38.4601L23.3704 38.5588C24.8974 39.159 26.5242 39.4661 28.1654 39.4639C29.1865 39.4645 30.2042 39.3471 31.1984 39.1143L30.7656 37.2897C28.5359 37.8072 26.2019 37.643 24.0671 36.8183L23.8196 36.7195Z" fill="white"/>
<path d="M41.9483 21.9107C38.9155 19.0995 34.4348 19.094 31.2955 21.899L32.5461 23.2954C34.9877 21.1184 38.3277 21.112 40.6703 23.2837L41.9483 21.9107Z" fill="white"/>
<path d="M14.3825 21.9107L15.6606 23.2832C18.0022 21.1127 21.3422 21.1172 23.7848 23.2949L25.0353 21.8985C21.8941 19.094 17.4146 19.0995 14.3825 21.9107Z" fill="white"/>
<path d="M27.2266 23.534H29.1043V33.8416H27.2266V23.534Z" fill="white"/>
<path d="M19.7158 29.1563C20.7528 29.1563 21.5935 28.3172 21.5935 27.2822C21.5935 26.2472 20.7528 25.4081 19.7158 25.4081C18.6788 25.4081 17.8381 26.2472 17.8381 27.2822C17.8381 28.3172 18.6788 29.1563 19.7158 29.1563Z" fill="white"/>
<path d="M55.392 34.7786H46.1416L36.885 32.0068C36.4896 31.8885 36.0632 32.042 35.8343 32.3847L34.9981 33.6366C33.3991 36.0304 33.3991 39.1491 34.9981 41.543L35.8343 42.7949C36.0632 43.1376 36.4896 43.291 36.885 43.1727L40.3304 42.1414L40.332 42.1406L46.1416 40.4009H55.392C55.9105 40.4009 56.3308 39.9814 56.3308 39.4639V35.7157C56.3308 35.1982 55.9105 34.7786 55.392 34.7786ZM45.0647 38.7666L40.6899 40.0764L40.6312 39.883C40.5043 39.4567 40.5334 38.9995 40.7133 38.5927C41.1488 37.6241 41.1488 36.515 40.7133 35.5464C40.6494 35.398 40.6124 35.2393 40.6043 35.0779L45.0647 36.413V38.7666ZM36.56 40.5034C35.3816 38.7391 35.3816 36.4405 36.56 34.6761L37.0111 34.0017L38.7495 34.5223C38.6608 35.1315 38.748 35.7534 39.0006 36.315C39.2134 36.7956 39.2134 37.3434 39.0006 37.824C38.6337 38.6414 38.5741 39.5634 38.8328 40.4211L38.8915 40.6148L37.0111 41.1779L36.56 40.5034ZM54.4531 38.5268H46.9424V36.6527H54.4531V38.5268Z" fill="white"/>
<path d="M0.938847 44.6177H10.2118L11.9776 45.0579C12.0519 45.0769 12.1283 45.0864 12.205 45.0862H19.528C20.6681 45.0847 21.592 44.1626 21.5935 43.0247V39.6513C21.592 38.5134 20.6681 37.5913 19.528 37.5898H12.205C12.1191 37.59 12.0337 37.6019 11.9511 37.6249L10.1982 38.1169H0.938847C0.420369 38.1169 0 38.5364 0 39.0539V43.6806C0 44.1982 0.420369 44.6177 0.938847 44.6177ZM19.7158 39.6513V43.0247C19.7158 43.1282 19.6318 43.2121 19.528 43.2121H16.8993V39.4639H19.528C19.6318 39.4639 19.7158 39.5479 19.7158 39.6513ZM1.87769 39.991H10.3273C10.4132 39.9907 10.4987 39.9789 10.5813 39.9558L12.3341 39.4639H15.0216V43.2121H12.3205L10.5548 42.7719C10.4805 42.7528 10.4041 42.7433 10.3273 42.7436H1.87769V39.991Z" fill="white"/>
<path d="M0.938847 17.9117L4.76113 17.909L16.5802 17.0657C17.5107 16.9946 18.3955 16.6351 19.1114 16.0376H21.5935C22.3062 16.0351 22.9559 15.6294 23.2697 14.9907L28.3194 14.1507C28.7723 14.0755 29.1043 13.6847 29.1043 13.2264V11.3523C29.1043 10.8941 28.7723 10.5033 28.3194 10.4281L23.2697 9.58811C23.2133 9.47508 23.1456 9.36802 23.0676 9.26857C24.724 8.78716 26.4403 8.54224 28.1654 8.54119C30.7091 8.5269 33.2269 9.05247 35.5516 10.0831C37.1292 10.7674 38.5839 11.7049 39.8579 12.8585C42.0408 14.8562 43.4501 17.3095 43.9378 19.9697C43.9657 20.1103 43.4592 31.5767 43.429 31.8741L46.0035 31.9675C48.5948 31.9644 50.6947 29.8686 50.6978 27.2822V23.534C50.6947 20.9476 48.5948 18.8518 46.0035 18.8487H45.9593L46.0035 17.9117C46.1027 8.11881 38.229 0.0997651 28.4173 0.000906228C22.663 -0.0570738 17.2369 2.6701 13.8575 7.31904L4.69424 6.66709H0.938847C0.420369 6.66709 0 7.08665 0 7.60414V16.9746C0 17.4923 0.420369 17.9117 0.938847 17.9117ZM35.7099 8.11952C34.8724 7.77855 34.012 7.49673 33.135 7.27617L35.0073 3.53781C36.166 4.08809 37.2539 4.776 38.2472 5.58678L35.7099 8.11952ZM31.2269 6.89327C30.5233 6.7889 29.8149 6.72132 29.1043 6.69051V2.03232C30.5191 2.11407 31.9166 2.38441 33.2596 2.83607L31.2269 6.89327ZM27.2266 6.69051C26.5159 6.72132 25.8071 6.7889 25.1035 6.89292L23.0711 2.83595C24.4141 2.3843 25.8117 2.11396 27.2266 2.0322V6.69051ZM23.1953 7.27476C22.3183 7.49509 21.4582 7.77761 20.6214 8.1201L18.0686 5.57203C19.0679 4.76651 20.1616 4.08504 21.3256 3.54272L23.1953 7.27476ZM19.7158 14.1635V10.4153H21.5935V14.1635H19.7158ZM27.2266 12.4331L23.4712 13.0572V11.5216L27.2266 12.1457V12.4331ZM41.824 12.1637L42.6855 11.3038C43.1694 12.3655 43.5353 13.4769 43.7769 14.618C43.2101 13.7366 42.5558 12.9144 41.824 12.1637ZM48.8201 23.534V27.2822C48.8183 28.8341 47.5584 30.0916 46.0035 30.0934H45.4273L45.8706 20.7229H46.0035C47.5584 20.7246 48.8183 21.9822 48.8201 23.534ZM41.7559 9.58155L40.4366 10.8983C39.5332 10.1563 38.5575 9.50647 37.5242 8.95888L39.6377 6.84934C40.4405 7.68121 41.1507 8.59729 41.7559 9.58155ZM16.6925 6.84876L17.5466 7.70124C17.2328 7.60297 16.9089 7.53972 16.5811 7.51266L16.12 7.47986C16.3038 7.26715 16.4939 7.05631 16.6925 6.84876ZM1.87769 8.54025L4.62734 8.5385L16.4481 9.38126C16.9519 9.41768 17.4346 9.59853 17.8381 9.9019V14.6769C17.4344 14.9805 16.9514 15.1612 16.4472 15.1975L5.63308 15.9705V11.3523H3.75539V16.0376H1.87769V8.54025Z" fill="white"/>
</svg>
