<svg width="55" height="55" viewBox="0 0 55 55" fill="none" xmlns="http://www.w3.org/2000/svg">
<path d="M27.5 0C12.5922 0 0 12.5922 0 27.5C0 36.2697 4.378 44.2145 11 49.291V49.5H11.2805C15.8675 52.9237 21.4857 55 27.5 55C33.5143 55 39.1325 52.9237 43.7195 49.5H44V49.291C50.622 44.2145 55 36.2725 55 27.5C55 12.5922 42.4078 0 27.5 0ZM16.7035 46.5493C17.1088 44.7161 18.1267 43.0758 19.5895 41.899C21.0523 40.7221 22.8726 40.079 24.75 40.0757H30.25C32.1273 40.0795 33.9473 40.7228 35.41 41.8996C36.8727 43.0763 37.8908 44.7163 38.2965 46.5493C35.0845 48.411 31.394 49.5 27.5 49.5C23.606 49.5 19.9155 48.411 16.7035 46.5493ZM42.9275 43.0128C41.8785 40.5154 40.1163 38.3829 37.8613 36.8822C35.6063 35.3814 32.9587 34.5792 30.25 34.5757H24.75C22.0413 34.5792 19.3937 35.3814 17.1387 36.8822C14.8837 38.3829 13.1215 40.5154 12.0725 43.0128C8.03825 39.0005 5.5 33.484 5.5 27.5C5.5 15.5732 15.5732 5.5 27.5 5.5C39.4268 5.5 49.5 15.5732 49.5 27.5C49.5 33.484 46.9618 39.0005 42.9275 43.0128Z" fill="white"/>
<path d="M27.5 11C21.23 11 16.5 15.73 16.5 22C16.5 28.27 21.23 33 27.5 33C33.77 33 38.5 28.27 38.5 22C38.5 15.73 33.77 11 27.5 11ZM27.5 27.5C24.2605 27.5 22 25.2395 22 22C22 18.7605 24.2605 16.5 27.5 16.5C30.7395 16.5 33 18.7605 33 22C33 25.2395 30.7395 27.5 27.5 27.5Z" fill="white"/>
</svg>
