<svg width="38" height="38" viewBox="0 0 38 38" fill="none" xmlns="http://www.w3.org/2000/svg">
<path d="M32.2272 5.77273C29.106 2.62033 24.961 0.687076 20.5399 0.321666C16.1187 -0.0437448 11.7126 1.18275 8.11613 3.77991C4.51967 6.37708 1.96968 10.1739 0.926127 14.4856C-0.11743 18.7973 0.41414 23.34 2.42495 27.2943L0.451089 36.8773C0.430608 36.9727 0.430028 37.0712 0.449385 37.1669C0.468743 37.2625 0.507621 37.3531 0.563588 37.433C0.645577 37.5542 0.762611 37.6476 0.89906 37.7006C1.03551 37.7536 1.18488 37.7637 1.32723 37.7296L10.7193 35.5034C14.6624 37.4633 19.1731 37.9607 23.4485 36.9071C27.724 35.8534 31.487 33.3171 34.068 29.7494C36.6489 26.1817 37.8805 21.8141 37.5434 17.4236C37.2063 13.0331 35.3225 8.90464 32.2272 5.77273ZM29.2988 29.1455C27.1392 31.299 24.3583 32.7205 21.348 33.2098C18.3377 33.6991 15.2497 33.2314 12.5193 31.8727L11.2102 31.225L5.45223 32.5886L5.46927 32.5171L6.66245 26.7216L6.02154 25.4568C4.62641 22.7168 4.13425 19.6056 4.61559 16.5688C5.09692 13.532 6.52705 10.7254 8.70109 8.55114C11.4328 5.82026 15.1373 4.28614 19 4.28614C22.8626 4.28614 26.5671 5.82026 29.2988 8.55114C29.3221 8.57782 29.3471 8.60287 29.3738 8.62614C32.0717 11.3641 33.5778 15.0575 33.5637 18.9013C33.5497 22.745 32.0166 26.4273 29.2988 29.1455Z" fill="white"/>
</svg>
