<svg width="45" height="45" viewBox="0 0 45 45" fill="none" xmlns="http://www.w3.org/2000/svg">
<path d="M22.5 0C10.3027 0 0 10.3027 0 22.5C0 29.6752 3.582 36.1755 9 40.329V40.5H9.2295C12.9825 43.3012 17.5792 45 22.5 45C27.4208 45 32.0175 43.3012 35.7705 40.5H36V40.329C41.418 36.1755 45 29.6775 45 22.5C45 10.3027 34.6972 0 22.5 0ZM13.6665 38.0858C13.9981 36.5859 14.831 35.2438 16.0278 34.281C17.2246 33.3181 18.7139 32.7919 20.25 32.7892H24.75C26.286 32.7923 27.775 33.3187 28.9718 34.2815C30.1686 35.2443 31.0016 36.5861 31.3335 38.0858C28.7055 39.609 25.686 40.5 22.5 40.5C19.314 40.5 16.2945 39.609 13.6665 38.0858ZM35.1225 35.1923C34.2643 33.149 32.8224 31.4042 30.9774 30.1763C29.1324 28.9485 26.9662 28.292 24.75 28.2892H20.25C18.0338 28.292 15.8676 28.9485 14.0226 30.1763C12.1776 31.4042 10.7357 33.149 9.8775 35.1923C6.57675 31.9095 4.5 27.396 4.5 22.5C4.5 12.7417 12.7417 4.5 22.5 4.5C32.2582 4.5 40.5 12.7417 40.5 22.5C40.5 27.396 38.4233 31.9095 35.1225 35.1923Z" fill="white"/>
<path d="M22.5 9C17.37 9 13.5 12.87 13.5 18C13.5 23.13 17.37 27 22.5 27C27.63 27 31.5 23.13 31.5 18C31.5 12.87 27.63 9 22.5 9ZM22.5 22.5C19.8495 22.5 18 20.6505 18 18C18 15.3495 19.8495 13.5 22.5 13.5C25.1505 13.5 27 15.3495 27 18C27 20.6505 25.1505 22.5 22.5 22.5Z" fill="white"/>
</svg>
