<svg width="49" height="34" viewBox="0 0 49 34" fill="none" xmlns="http://www.w3.org/2000/svg">
<path d="M41.041 4.74214C41.041 2.13396 38.8683 0 36.2127 0H28.9701V4.74214H36.2127V11.0255L27.8113 21.3396H19.3134V9.48427H9.65671C4.32138 9.48427 0 13.7285 0 18.9685V26.0817H4.82836C4.82836 30.0177 8.06335 33.1949 12.0709 33.1949C16.0784 33.1949 19.3134 30.0177 19.3134 26.0817H30.1289L41.041 12.6852V4.74214ZM4.82836 21.3396V18.9685C4.82836 16.3604 7.00112 14.2264 9.65671 14.2264H14.4851V21.3396H4.82836ZM12.0709 28.4528C10.7431 28.4528 9.65671 27.3858 9.65671 26.0817H14.4851C14.4851 27.3858 13.3987 28.4528 12.0709 28.4528Z" fill="white"/>
<path d="M7.24253 2.37107H19.3134V7.1132H7.24253V2.37107ZM41.041 18.9685C37.0335 18.9685 33.7985 22.1458 33.7985 26.0817C33.7985 30.0177 37.0335 33.195 41.041 33.195C45.0486 33.195 48.2836 30.0177 48.2836 26.0817C48.2836 22.1458 45.0486 18.9685 41.041 18.9685ZM41.041 28.4528C39.7132 28.4528 38.6269 27.3858 38.6269 26.0817C38.6269 24.7777 39.7132 23.7107 41.041 23.7107C42.3688 23.7107 43.4552 24.7777 43.4552 26.0817C43.4552 27.3858 42.3688 28.4528 41.041 28.4528Z" fill="white"/>
</svg>
