<svg width="45" height="34" viewBox="0 0 45 34" fill="none" xmlns="http://www.w3.org/2000/svg">
<path d="M42.8768 27.6625H1.38312C1.00853 27.6625 0.684358 27.5256 0.410615 27.2518C0.136872 26.9781 0 26.6539 0 26.2793C0 20.8621 1.67848 16.2445 5.03543 12.4265C8.39239 8.6085 12.7074 6.3105 17.9806 5.53249C18.3552 5.53249 18.6794 5.39562 18.9531 5.12188C19.2268 4.84813 19.3637 4.52396 19.3637 4.14937C19.3637 3.77477 19.2268 3.4506 18.9531 3.17686C18.6794 2.90312 18.3552 2.76625 17.9806 2.76625C17.606 2.76625 17.2818 2.62937 17.0081 2.35563C16.7343 2.08189 16.5975 1.75772 16.5975 1.38312C16.5975 1.00853 16.7343 0.684358 17.0081 0.410615C17.2818 0.136872 17.606 0 17.9806 0H26.2793C26.6539 0 26.9781 0.136872 27.2518 0.410615C27.5256 0.684358 27.6625 1.00853 27.6625 1.38312C27.6625 1.75772 27.5256 2.08189 27.2518 2.35563C26.9781 2.62937 26.6539 2.76625 26.2793 2.76625C25.9047 2.76625 25.5806 2.90312 25.3068 3.17686C25.0331 3.4506 24.8962 3.77477 24.8962 4.14937C24.8962 4.52396 25.0331 4.84813 25.3068 5.12188C25.5806 5.39562 25.9047 5.53249 26.2793 5.53249C31.5525 6.3105 35.8675 8.6085 39.2245 12.4265C42.5815 16.2445 44.2599 20.8621 44.2599 26.2793C44.2599 26.6539 44.1231 26.9781 43.8493 27.2518C43.5756 27.5256 43.2514 27.6625 42.8768 27.6625ZM1.38312 30.4287H42.8768C43.2514 30.4287 43.5756 30.5656 43.8493 30.8393C44.1231 31.1131 44.2599 31.4372 44.2599 31.8118C44.2599 32.1864 44.1231 32.5106 43.8493 32.7843C43.5756 33.0581 43.2514 33.195 42.8768 33.195H1.38312C1.00853 33.195 0.684358 33.0581 0.410615 32.7843C0.136872 32.5106 0 32.1864 0 31.8118C0 31.4372 0.136872 31.1131 0.410615 30.8393C0.684358 30.5656 1.00853 30.4287 1.38312 30.4287Z" fill="white"/>
</svg>
