<svg width="20" height="19" viewBox="0 0 20 19" fill="none" xmlns="http://www.w3.org/2000/svg">
<path d="M19.7875 15.8943C19.0818 17.0057 17.9671 18.3659 16.5659 18.7034C14.1114 19.2966 10.3443 18.7239 5.65684 14.3534L5.59888 14.3023C1.47729 10.4807 0.406834 7.3 0.665925 4.77727C0.809107 3.34545 2.00229 2.05 3.00797 1.20454C3.16697 1.06884 3.35551 0.97223 3.55852 0.922428C3.76153 0.872625 3.97338 0.871016 4.17713 0.917728C4.38087 0.96444 4.57086 1.05818 4.7319 1.19145C4.89294 1.32472 5.02056 1.49382 5.10456 1.68523L6.62161 5.09432C6.72019 5.31536 6.75672 5.55907 6.7273 5.79931C6.69787 6.03955 6.60358 6.26724 6.45456 6.45795L5.68752 7.4534C5.52293 7.65895 5.42362 7.90904 5.40235 8.1715C5.38109 8.43396 5.43885 8.69677 5.5682 8.92613C5.99774 9.67954 7.02729 10.7875 8.16933 11.8136C9.45115 12.9727 10.8727 14.0329 11.7727 14.3943C12.0136 14.4927 12.2783 14.5167 12.5329 14.4632C12.7875 14.4098 13.0203 14.2813 13.2012 14.0943L14.0909 13.1977C14.2626 13.0284 14.4761 12.9077 14.7097 12.8478C14.9432 12.7879 15.1885 12.791 15.4205 12.8568L19.0239 13.8795C19.2227 13.9405 19.4049 14.0461 19.5565 14.1883C19.7082 14.3305 19.8254 14.5055 19.8991 14.6999C19.9728 14.8943 20.001 15.103 19.9817 15.31C19.9624 15.5171 19.8959 15.7169 19.7875 15.8943Z" fill="white"/>
</svg>
